<?xml version="1.0" encoding="UTF-8"?>
<svg id="Layer_2" data-name="Layer 2" xmlns="http://www.w3.org/2000/svg" viewBox="0 0 737.76 393.09">
  <defs>
    <style>
      .cls-1 {
        fill: #339159;
      }

      .cls-1, .cls-2 {
        stroke-width: 0px;
      }

      .cls-2 {
        fill: #345fa3;
      }
    </style>
  </defs>
  <g id="Layer_1-2" data-name="Layer 1">
    <g>
      <path class="cls-2" d="M0,138.52h111.41c40.11,0,52.26,14.93,52.26,37.62s-13.47,36.16-52.26,36.16H27.81v25.76H0v-99.54ZM27.81,161.21v30.59h81.1c21.96,0,26.64-4.98,26.64-15.22,0-9.52-5.85-15.37-26.35-15.37H27.81Z"/>
      <path class="cls-2" d="M305.67,124.61c10.54,0,14.64,4.24,14.64,10.68s-4.1,10.98-14.64,10.98-14.64-4.39-14.64-10.98,4.1-10.68,14.64-10.68M318.56,238.06h-25.76v-79.05h25.76v79.05Z"/>
      <path class="cls-2" d="M444.46,238.06v-40.11c0-13.03-8.34-19.62-35.13-19.62-18.89,0-38.21,5.13-43.04,7.03v52.7h-25.77v-79.05h19.91l2.93,8.78h.59c10.98-4.83,28.98-10.25,49.04-10.25,44.8,0,57.24,15.95,57.24,39.08v41.43h-25.77Z"/>
      <path class="cls-2" d="M517.7,138.52h6.44v20.49h79.49v20.79h-79.49v22.54c0,11.13,4.54,16.4,37.62,16.4,15.22,0,33.52-2.64,40.4-4.25l2.49,19.62c-10.69,2.93-27.23,5.42-44.8,5.42-51.09,0-61.48-13.32-61.48-35.58v-24.15h-15.22v-20.79h15.22v-16.83l19.32-3.66Z"/>
      <path class="cls-2" d="M621.53,217.57c12.01,1.9,31.04,4.68,56.95,4.68,10.69,0,21.81-.73,27.37-2.2,4.68-1.32,6-3.51,6-7.03,0-3.22-1.9-5.56-7.61-6.15-4.83-.44-13.03-.73-25.18-.73-31.47,0-43.62-.88-51.53-4.24-6.88-2.93-10.4-8.93-10.4-16.98,0-9.95,4.54-17.71,16.11-21.96,8.19-2.93,20.05-5.42,44.94-5.42s46.11,3.37,52.99,4.68l-2.78,17.27c-9.22-1.47-28.4-4.1-50.65-4.1-16.54,0-25.33.59-29.13,1.76-3.37,1.02-4.83,3.22-4.83,6.15,0,3.22,1.46,5.27,4.83,6,3.81.88,17.57,1.03,28.55,1.03,15.81,0,32.94.29,44.06,2.93,12.15,2.78,16.54,9.81,16.54,19.03,0,9.95-3.22,16.83-11.12,20.79-10.84,5.56-33.38,7.03-48.16,7.03-27.96,0-49.62-3.37-58.99-5.57.73-5.71,1.46-11.27,2.05-16.98"/>
      <path class="cls-2" d="M275.89,188.29c0,27.49-22.28,49.77-49.77,49.77s-49.77-22.28-49.77-49.77,22.28-49.77,49.77-49.77,49.77,22.28,49.77,49.77"/>
      <path class="cls-2" d="M151.95,57.53c9.66,3.95,15.08,12.15,15.08,22.25,0,18.59-11.56,30.01-44.21,30.01H0V10.25h122.97c32.21,0,40.41,13.32,40.41,26.93,0,9.95-4.69,16.25-11.42,19.62v.73ZM121.5,50.06c8.34,0,14.2-2.34,14.2-9.66,0-5.85-3.81-10.39-17.27-10.39H27.81v20.05h93.69ZM27.81,68.07v21.96h93.1c13.61,0,18.3-3.81,18.3-11.13s-5.56-10.83-17.27-10.83H27.81Z"/>
      <rect class="cls-2" x="188.16" width="25.76" height="109.79"/>
      <path class="cls-2" d="M261.66,30.74v40.11c0,12.15,7.76,19.62,34.4,19.62,21.23,0,39.67-6.44,43.77-8.64V30.74h25.77v79.05h-19.91l-2.35-8.35h-.58c-13.91,7.03-32.35,9.81-49.33,9.81-43.62,0-57.53-14.64-57.53-39.09V30.74h25.77Z"/>
      <path class="cls-2" d="M409.41,78.47v.44c.14,4.39,2.49,7.46,6.73,9.66,5.27,2.78,15.52,3.95,36.45,3.95,24.89,0,41.28-2.49,54.02-4.54l1.47,17.57c-8.78,2.2-29.13,6.3-55.92,6.3-24.16,0-41.87-2.93-51.68-8.49-10.1-5.56-16.83-14.78-16.83-32.5,0-13.61,5.13-24.45,15.08-31.03,11.42-7.46,28.11-10.54,49.92-10.54s36.45,2.78,44.65,6c11.56,4.54,17.71,12.88,17.71,24.45,0,6-1.31,14.64-2.34,18.74h-99.25ZM409.41,63.83h77.15s.44-1.9.44-3.66c0-4.25-2.34-7.17-8.64-8.78-5.56-1.46-15.66-2.78-28.84-2.78-17.42,0-28.69,2.2-33.81,4.98-4.68,2.49-6.3,6.59-6.3,10.25"/>
      <path class="cls-1" d="M70.39,280.9l-1.16,4.85c-6.87-1.9-19.46-4.66-31.98-4.66s-20.25,2.15-24.61,4.97c-4.11,2.7-6.38,6.51-6.38,12.27s2.46,9.7,6.51,11.91c4.54,2.51,13.07,3.99,25.35,3.99,11.48,0,24.67-2.88,31.73-5.03l1.1,5.03c-6.69,2.21-20.01,5.16-32.83,5.16-15.04,0-23.14-1.53-29.58-5.16-5.22-2.95-8.53-8.65-8.53-15.89,0-7.73,3.25-12.76,8.53-16.2,5.4-3.56,14.36-6.2,28.72-6.2s26.64,2.76,33.14,4.91v.06Z"/>
      <path class="cls-1" d="M130.48,304.1v.18s1.96,1.35,3.86,2.7l15.16,11.17v.37h-8.35l-19.45-14.36h-33.51v14.36h-6.14v-41.73h45.29c15.83,0,21.11,4.85,21.11,13.99,0,7.92-4.3,12.64-17.98,13.32M88.19,299.38h38.66c12.58,0,15.34-3.13,15.34-8.59s-2.95-8.84-15.96-8.84h-38.05v17.43Z"/>
      <polygon class="cls-1" points="166.75 299.44 166.75 313.37 225.84 313.37 225.84 318.52 160.61 318.52 160.61 276.79 225.48 276.79 225.48 281.95 166.75 281.95 166.75 294.65 223.02 294.65 223.02 299.44 166.75 299.44"/>
      <path class="cls-1" d="M297.58,309.2h-47.81l-8.53,9.33h-7.36v-.43l37.8-41.3h4.05l37.8,41.3v.43h-7.36l-8.6-9.33ZM254.19,304.41h39.03l-11.9-12.95c-3.81-4.11-7.06-7.92-7.55-8.53h-.12s-3.8,4.42-7.55,8.53l-11.91,12.95Z"/>
      <polygon class="cls-1" points="300.09 281.95 300.09 276.79 368.7 276.79 368.7 281.95 337.47 281.95 337.47 318.52 331.33 318.52 331.33 281.95 300.09 281.95"/>
      <rect class="cls-1" x="381.34" y="276.79" width="6.14" height="41.73"/>
      <polygon class="cls-1" points="407.94 276.79 438.68 310.12 438.8 310.12 469.55 276.79 477.41 276.79 477.41 277.16 439.05 318.71 438.44 318.71 400.08 277.16 400.08 276.79 407.94 276.79"/>
      <polygon class="cls-1" points="492.2 299.44 492.2 313.37 551.3 313.37 551.3 318.52 486.06 318.52 486.06 276.79 550.93 276.79 550.93 281.95 492.2 281.95 492.2 294.65 548.48 294.65 548.48 299.44 492.2 299.44"/>
      <path class="cls-1" d="M36.58,373.14c-16.14,0-26.63-.68-30.87-2.09C1.66,369.71,0,366.64,0,362.71c0-4.67,2.33-7.73,7.12-9.57,4.91-1.9,13.75-3.5,27.25-3.5,12.7,0,26.57,1.66,33.14,3.01l-.86,4.73c-7.79-1.47-20.25-2.95-32.28-2.95s-19.88,1.11-23.87,2.58c-3.37,1.22-4.23,2.88-4.23,5.46,0,2.27,1.04,3.93,3.87,4.73,3.25.92,11.9,1.17,23.99,1.17,10.8,0,22.89.06,29.4,1.6,5.83,1.35,8.04,4.97,8.04,9.51,0,5.15-2.02,7.92-5.95,9.88-5.4,2.64-16.88,3.74-28.48,3.74-15.77,0-29.4-1.78-35.9-3.31l.8-4.85c7.18,1.35,20.31,3.38,35.1,3.38,11.35,0,19.39-.74,24.12-2.7,3.07-1.29,4.05-3.32,4.05-6.14,0-2.58-1.17-4.54-5.46-5.4-3.8-.74-12.89-.92-23.26-.92"/>
      <path class="cls-1" d="M88.75,387.19c-5.4-3.25-8.53-7.79-8.53-15.83s3.38-12.7,8.53-15.83c5.71-3.44,15.71-5.89,29.4-5.89s23.69,2.45,29.4,5.89c5.15,3.13,8.53,7.98,8.53,15.83s-3.13,12.58-8.53,15.83c-5.71,3.44-15.53,5.89-29.4,5.89s-23.69-2.45-29.4-5.89M143.06,383.45c4.29-2.52,6.75-6.2,6.75-12.09s-2.27-9.45-6.62-12.03c-4.6-2.7-13.44-4.54-25.04-4.54s-20.44,1.84-25.04,4.54c-4.36,2.58-6.63,6.38-6.63,12.03s2.45,9.57,6.75,12.09c4.66,2.7,13.62,4.48,24.92,4.48s20.25-1.78,24.92-4.48"/>
      <polygon class="cls-1" points="173.32 387.07 226.16 387.07 226.16 392.23 167.19 392.23 167.19 350.5 173.32 350.5 173.32 387.07"/>
      <path class="cls-1" d="M238.49,350.5v24.3c0,7.86,10.74,13.14,28.6,13.14s28.6-5.28,28.6-13.14v-24.3h6.14v24.79c0,9.39-10.86,17.8-34.73,17.8s-34.74-8.4-34.74-17.8v-24.79h6.14Z"/>
      <polygon class="cls-1" points="310.48 355.65 310.48 350.5 379.09 350.5 379.09 355.65 347.85 355.65 347.85 392.23 341.72 392.23 341.72 355.65 310.48 355.65"/>
      <rect class="cls-1" x="391.73" y="350.5" width="6.14" height="41.73"/>
      <path class="cls-1" d="M421.45,387.19c-5.4-3.25-8.53-7.79-8.53-15.83s3.38-12.7,8.53-15.83c5.71-3.44,15.71-5.89,29.4-5.89s23.69,2.45,29.4,5.89c5.15,3.13,8.53,7.98,8.53,15.83s-3.13,12.58-8.53,15.83c-5.71,3.44-15.53,5.89-29.4,5.89s-23.69-2.45-29.4-5.89M475.76,383.45c4.29-2.52,6.75-6.2,6.75-12.09s-2.27-9.45-6.62-12.03c-4.61-2.7-13.44-4.54-25.04-4.54s-20.44,1.84-25.04,4.54c-4.36,2.58-6.63,6.38-6.63,12.03s2.45,9.57,6.75,12.09c4.66,2.7,13.62,4.48,24.92,4.48s20.25-1.78,24.91-4.48"/>
      <path class="cls-1" d="M506.21,357.62h-.18v34.61h-6.14v-41.73h5.03c19.33,11.66,38.66,23.07,58.05,34.61h.18v-34.61h6.14v41.73h-5.03c-19.39-11.54-38.66-23.01-58.06-34.61"/>
      <path class="cls-1" d="M616.98,373.14c-16.14,0-26.64-.68-30.87-2.09-4.05-1.35-5.71-4.42-5.71-8.35,0-4.67,2.33-7.73,7.12-9.57,4.91-1.9,13.75-3.5,27.25-3.5,12.7,0,26.57,1.66,33.14,3.01l-.86,4.73c-7.8-1.47-20.25-2.95-32.28-2.95s-19.88,1.11-23.87,2.58c-3.37,1.22-4.23,2.88-4.23,5.46,0,2.27,1.04,3.93,3.86,4.73,3.25.92,11.91,1.17,23.99,1.17,10.8,0,22.89.06,29.4,1.6,5.83,1.35,8.04,4.97,8.04,9.51,0,5.15-2.03,7.92-5.95,9.88-5.4,2.64-16.88,3.74-28.48,3.74-15.77,0-29.39-1.78-35.9-3.31l.8-4.85c7.18,1.35,20.31,3.38,35.1,3.38,11.35,0,19.39-.74,24.12-2.7,3.07-1.29,4.05-3.32,4.05-6.14,0-2.58-1.17-4.54-5.46-5.4-3.8-.74-12.89-.92-23.26-.92"/>
    </g>
  </g>
</svg>