<svg width="370" height="470" viewBox="0 0 370 470" fill="none" xmlns="http://www.w3.org/2000/svg">
<rect width="370" height="470" rx="24" fill="white"/>
<path d="M24 34.5C24 28.701 28.701 24 34.5 24H45.5C51.299 24 56 28.701 56 34.5C56 40.299 51.299 45 45.5 45H34.5C28.701 45 24 40.299 24 34.5Z" fill="#CEE2FF"/>
<path d="M36.94 36.58H34.03L33.53 38H32.34L34.83 31.04H36.15L38.64 38H37.44L36.94 36.58ZM36.62 35.65L35.49 32.42L34.35 35.65H36.62ZM44.5827 33.12C44.5827 33.4733 44.4993 33.8067 44.3327 34.12C44.166 34.4333 43.8993 34.69 43.5327 34.89C43.166 35.0833 42.696 35.18 42.1227 35.18H40.8627V38H39.7227V31.05H42.1227C42.656 31.05 43.106 31.1433 43.4727 31.33C43.846 31.51 44.1227 31.7567 44.3027 32.07C44.4893 32.3833 44.5827 32.7333 44.5827 33.12ZM42.1227 34.25C42.556 34.25 42.8793 34.1533 43.0927 33.96C43.306 33.76 43.4127 33.48 43.4127 33.12C43.4127 32.36 42.9827 31.98 42.1227 31.98H40.8627V34.25H42.1227ZM46.8099 31.05V38H45.6699V31.05H46.8099Z" fill="#143568"/>
<path d="M62 34.5C62 28.701 66.701 24 72.5 24H114.5C120.299 24 125 28.701 125 34.5C125 40.299 120.299 45 114.5 45H72.5C66.701 45 62 40.299 62 34.5Z" fill="#CEFFFC"/>
<path d="M74.47 34.43C74.8433 34.4967 75.16 34.6933 75.42 35.02C75.68 35.3467 75.81 35.7167 75.81 36.13C75.81 36.4833 75.7167 36.8033 75.53 37.09C75.35 37.37 75.0867 37.5933 74.74 37.76C74.3933 37.92 73.99 38 73.53 38H70.75V31.05H73.4C73.8733 31.05 74.28 31.13 74.62 31.29C74.96 31.45 75.2167 31.6667 75.39 31.94C75.5633 32.2067 75.65 32.5067 75.65 32.84C75.65 33.24 75.5433 33.5733 75.33 33.84C75.1167 34.1067 74.83 34.3033 74.47 34.43ZM71.89 33.97H73.3C73.6733 33.97 73.9633 33.8867 74.17 33.72C74.3833 33.5467 74.49 33.3 74.49 32.98C74.49 32.6667 74.3833 32.4233 74.17 32.25C73.9633 32.07 73.6733 31.98 73.3 31.98H71.89V33.97ZM73.43 37.07C73.8167 37.07 74.12 36.9767 74.34 36.79C74.56 36.6033 74.67 36.3433 74.67 36.01C74.67 35.67 74.5533 35.4 74.32 35.2C74.0867 35 73.7767 34.9 73.39 34.9H71.89V37.07H73.43ZM76.6688 35.22C76.6688 34.6667 76.7822 34.1767 77.0088 33.75C77.2422 33.3233 77.5555 32.9933 77.9488 32.76C78.3488 32.52 78.7888 32.4 79.2688 32.4C79.7022 32.4 80.0788 32.4867 80.3988 32.66C80.7255 32.8267 80.9855 33.0367 81.1788 33.29V32.49H82.3288V38H81.1788V37.18C80.9855 37.44 80.7222 37.6567 80.3888 37.83C80.0555 38.0033 79.6755 38.09 79.2488 38.09C78.7755 38.09 78.3422 37.97 77.9488 37.73C77.5555 37.4833 77.2422 37.1433 77.0088 36.71C76.7822 36.27 76.6688 35.7733 76.6688 35.22ZM81.1788 35.24C81.1788 34.86 81.0988 34.53 80.9388 34.25C80.7855 33.97 80.5822 33.7567 80.3288 33.61C80.0755 33.4633 79.8022 33.39 79.5088 33.39C79.2155 33.39 78.9422 33.4633 78.6888 33.61C78.4355 33.75 78.2288 33.96 78.0688 34.24C77.9155 34.5133 77.8388 34.84 77.8388 35.22C77.8388 35.6 77.9155 35.9333 78.0688 36.22C78.2288 36.5067 78.4355 36.7267 78.6888 36.88C78.9488 37.0267 79.2222 37.1 79.5088 37.1C79.8022 37.1 80.0755 37.0267 80.3288 36.88C80.5822 36.7333 80.7855 36.52 80.9388 36.24C81.0988 35.9533 81.1788 35.62 81.1788 35.24ZM83.4462 35.24C83.4462 34.6733 83.5595 34.1767 83.7862 33.75C84.0195 33.3167 84.3395 32.9833 84.7462 32.75C85.1528 32.5167 85.6195 32.4 86.1462 32.4C86.8128 32.4 87.3628 32.56 87.7962 32.88C88.2362 33.1933 88.5328 33.6433 88.6862 34.23H87.4562C87.3562 33.9567 87.1962 33.7433 86.9762 33.59C86.7562 33.4367 86.4795 33.36 86.1462 33.36C85.6795 33.36 85.3062 33.5267 85.0262 33.86C84.7528 34.1867 84.6162 34.6467 84.6162 35.24C84.6162 35.8333 84.7528 36.2967 85.0262 36.63C85.3062 36.9633 85.6795 37.13 86.1462 37.13C86.8062 37.13 87.2428 36.84 87.4562 36.26H88.6862C88.5262 36.82 88.2262 37.2667 87.7862 37.6C87.3462 37.9267 86.7995 38.09 86.1462 38.09C85.6195 38.09 85.1528 37.9733 84.7462 37.74C84.3395 37.5 84.0195 37.1667 83.7862 36.74C83.5595 36.3067 83.4462 35.8067 83.4462 35.24ZM92.0023 35.25L94.5423 38H93.0023L90.9623 35.63V38H89.8223V30.6H90.9623V34.9L92.9623 32.49H94.5423L92.0023 35.25ZM103.007 35.11C103.007 35.3167 102.994 35.5033 102.967 35.67H98.757C98.7904 36.11 98.9537 36.4633 99.247 36.73C99.5404 36.9967 99.9004 37.13 100.327 37.13C100.94 37.13 101.374 36.8733 101.627 36.36H102.857C102.69 36.8667 102.387 37.2833 101.947 37.61C101.514 37.93 100.974 38.09 100.327 38.09C99.8004 38.09 99.327 37.9733 98.907 37.74C98.4937 37.5 98.167 37.1667 97.927 36.74C97.6937 36.3067 97.577 35.8067 97.577 35.24C97.577 34.6733 97.6904 34.1767 97.917 33.75C98.1504 33.3167 98.4737 32.9833 98.887 32.75C99.307 32.5167 99.787 32.4 100.327 32.4C100.847 32.4 101.31 32.5133 101.717 32.74C102.124 32.9667 102.44 33.2867 102.667 33.7C102.894 34.1067 103.007 34.5767 103.007 35.11ZM101.817 34.75C101.81 34.33 101.66 33.9933 101.367 33.74C101.074 33.4867 100.71 33.36 100.277 33.36C99.8837 33.36 99.547 33.4867 99.267 33.74C98.987 33.9867 98.8204 34.3233 98.767 34.75H101.817ZM106.909 32.4C107.342 32.4 107.729 32.49 108.069 32.67C108.416 32.85 108.686 33.1167 108.879 33.47C109.072 33.8233 109.169 34.25 109.169 34.75V38H108.039V34.92C108.039 34.4267 107.916 34.05 107.669 33.79C107.422 33.5233 107.086 33.39 106.659 33.39C106.232 33.39 105.892 33.5233 105.639 33.79C105.392 34.05 105.269 34.4267 105.269 34.92V38H104.129V32.49H105.269V33.12C105.456 32.8933 105.692 32.7167 105.979 32.59C106.272 32.4633 106.582 32.4 106.909 32.4ZM110.243 35.22C110.243 34.6667 110.356 34.1767 110.583 33.75C110.816 33.3233 111.13 32.9933 111.523 32.76C111.923 32.52 112.366 32.4 112.853 32.4C113.213 32.4 113.566 32.48 113.913 32.64C114.266 32.7933 114.546 33 114.753 33.26V30.6H115.903V38H114.753V37.17C114.566 37.4367 114.306 37.6567 113.973 37.83C113.646 38.0033 113.27 38.09 112.843 38.09C112.363 38.09 111.923 37.97 111.523 37.73C111.13 37.4833 110.816 37.1433 110.583 36.71C110.356 36.27 110.243 35.7733 110.243 35.22ZM114.753 35.24C114.753 34.86 114.673 34.53 114.513 34.25C114.36 33.97 114.156 33.7567 113.903 33.61C113.65 33.4633 113.376 33.39 113.083 33.39C112.79 33.39 112.516 33.4633 112.263 33.61C112.01 33.75 111.803 33.96 111.643 34.24C111.49 34.5133 111.413 34.84 111.413 35.22C111.413 35.6 111.49 35.9333 111.643 36.22C111.803 36.5067 112.01 36.7267 112.263 36.88C112.523 37.0267 112.796 37.1 113.083 37.1C113.376 37.1 113.65 37.0267 113.903 36.88C114.156 36.7333 114.36 36.52 114.513 36.24C114.673 35.9533 114.753 35.62 114.753 35.24Z" fill="#02605A"/>
<path d="M24 357C24 349.82 29.8203 344 37 344H92C99.1797 344 105 349.82 105 357C105 364.18 99.1797 370 92 370H37C29.8203 370 24 364.18 24 357Z" fill="#F1F3F4"/>
<path d="M46 357C46 358.187 45.6481 359.347 44.9889 360.333C44.3296 361.32 43.3925 362.089 42.2962 362.543C41.1998 362.997 39.9934 363.116 38.8295 362.885C37.6657 362.653 36.5966 362.082 35.7575 361.243C34.9184 360.404 34.3469 359.334 34.1154 358.171C33.8839 357.007 34.0027 355.8 34.4568 354.704C34.911 353.608 35.68 352.671 36.6667 352.011C37.6534 351.352 38.8134 351 40.0001 351C41.7189 350.998 43.3721 351.66 44.6154 352.846M44.6154 352.846L44.1539 351M44.6154 352.846L42.7693 353.308" stroke="#838F99" stroke-width="1.2" stroke-linecap="round" stroke-linejoin="round"/>
<path d="M40 354V357.623L42.4 358.8" stroke="#838F99" stroke-width="1.2" stroke-linecap="round" stroke-linejoin="round"/>
<path d="M58.264 353.308L54.928 361H53.548L56.92 353.452H52.48V352.288H58.264V353.308ZM66.152 354.28C66.656 354.28 67.104 354.388 67.496 354.604C67.896 354.82 68.208 355.14 68.432 355.564C68.664 355.988 68.78 356.5 68.78 357.1V361H67.424V357.304C67.424 356.712 67.276 356.26 66.98 355.948C66.684 355.628 66.28 355.468 65.768 355.468C65.256 355.468 64.848 355.628 64.544 355.948C64.248 356.26 64.1 356.712 64.1 357.304V361H62.732V352.12H64.1V355.156C64.332 354.876 64.624 354.66 64.976 354.508C65.336 354.356 65.728 354.28 66.152 354.28ZM73.393 361.108C72.769 361.108 72.205 360.968 71.701 360.688C71.197 360.4 70.801 360 70.513 359.488C70.225 358.968 70.081 358.368 70.081 357.688C70.081 357.016 70.229 356.42 70.525 355.9C70.821 355.38 71.225 354.98 71.737 354.7C72.249 354.42 72.821 354.28 73.453 354.28C74.085 354.28 74.657 354.42 75.169 354.7C75.681 354.98 76.085 355.38 76.381 355.9C76.677 356.42 76.825 357.016 76.825 357.688C76.825 358.36 76.673 358.956 76.369 359.476C76.065 359.996 75.649 360.4 75.121 360.688C74.601 360.968 74.025 361.108 73.393 361.108ZM73.393 359.92C73.745 359.92 74.073 359.836 74.377 359.668C74.689 359.5 74.941 359.248 75.133 358.912C75.325 358.576 75.421 358.168 75.421 357.688C75.421 357.208 75.329 356.804 75.145 356.476C74.961 356.14 74.717 355.888 74.413 355.72C74.109 355.552 73.781 355.468 73.429 355.468C73.077 355.468 72.749 355.552 72.445 355.72C72.149 355.888 71.913 356.14 71.737 356.476C71.561 356.804 71.473 357.208 71.473 357.688C71.473 358.4 71.653 358.952 72.013 359.344C72.381 359.728 72.841 359.92 73.393 359.92ZM84.1653 354.388V361H82.7973V360.22C82.5813 360.492 82.2973 360.708 81.9453 360.868C81.6013 361.02 81.2333 361.096 80.8413 361.096C80.3213 361.096 79.8533 360.988 79.4373 360.772C79.0293 360.556 78.7053 360.236 78.4653 359.812C78.2333 359.388 78.1173 358.876 78.1173 358.276V354.388H79.4733V358.072C79.4733 358.664 79.6213 359.12 79.9173 359.44C80.2133 359.752 80.6173 359.908 81.1293 359.908C81.6413 359.908 82.0453 359.752 82.3413 359.44C82.6453 359.12 82.7973 358.664 82.7973 358.072V354.388H84.1653ZM87.3383 355.348C87.5383 355.012 87.8023 354.752 88.1303 354.568C88.4663 354.376 88.8623 354.28 89.3183 354.28V355.696H88.9703C88.4343 355.696 88.0263 355.832 87.7463 356.104C87.4743 356.376 87.3383 356.848 87.3383 357.52V361H85.9703V354.388H87.3383V355.348ZM92.9758 361.108C92.4558 361.108 91.9878 361.016 91.5718 360.832C91.1638 360.64 90.8398 360.384 90.5998 360.064C90.3598 359.736 90.2318 359.372 90.2158 358.972H91.6318C91.6558 359.252 91.7878 359.488 92.0278 359.68C92.2758 359.864 92.5838 359.956 92.9518 359.956C93.3358 359.956 93.6318 359.884 93.8398 359.74C94.0558 359.588 94.1638 359.396 94.1638 359.164C94.1638 358.916 94.0438 358.732 93.8038 358.612C93.5718 358.492 93.1998 358.36 92.6878 358.216C92.1918 358.08 91.7878 357.948 91.4758 357.82C91.1638 357.692 90.8918 357.496 90.6598 357.232C90.4358 356.968 90.3238 356.62 90.3238 356.188C90.3238 355.836 90.4278 355.516 90.6358 355.228C90.8438 354.932 91.1398 354.7 91.5238 354.532C91.9158 354.364 92.3638 354.28 92.8678 354.28C93.6198 354.28 94.2238 354.472 94.6798 354.856C95.1438 355.232 95.3918 355.748 95.4238 356.404H94.0558C94.0318 356.108 93.9118 355.872 93.6958 355.696C93.4798 355.52 93.1878 355.432 92.8198 355.432C92.4598 355.432 92.1838 355.5 91.9918 355.636C91.7998 355.772 91.7038 355.952 91.7038 356.176C91.7038 356.352 91.7678 356.5 91.8958 356.62C92.0238 356.74 92.1798 356.836 92.3638 356.908C92.5478 356.972 92.8198 357.056 93.1798 357.16C93.6598 357.288 94.0518 357.42 94.3558 357.556C94.6678 357.684 94.9358 357.876 95.1598 358.132C95.3838 358.388 95.4998 358.728 95.5078 359.152C95.5078 359.528 95.4038 359.864 95.1958 360.16C94.9878 360.456 94.6918 360.688 94.3078 360.856C93.9318 361.024 93.4878 361.108 92.9758 361.108Z" fill="#838F99"/>
<path d="M113 357C113 349.82 118.82 344 126 344H220C227.18 344 233 349.82 233 357C233 364.18 227.18 370 220 370H126C118.82 370 113 364.18 113 357Z" fill="#F1F3F4"/>
<path d="M123 357.017C123 354.754 123 353.622 123.703 352.92C124.406 352.217 125.537 352.217 127.8 352.217H130.2C132.463 352.217 133.594 352.217 134.297 352.92C135 353.622 135 354.754 135 357.017V358.217C135 360.479 135 361.611 134.297 362.313C133.594 363.017 132.463 363.017 130.2 363.017H127.8C125.537 363.017 124.406 363.017 123.703 362.313C123 361.611 123 360.479 123 358.217V357.017Z" stroke="#838F99" stroke-width="1.2"/>
<path d="M127.8 352.217C125.538 352.217 124.406 352.217 123.703 352.92C123.218 353.405 123.068 354.093 123.021 355.217H134.979C134.932 354.093 134.782 353.405 134.297 352.92C133.594 352.217 132.463 352.217 130.2 352.217H127.8Z" stroke="#838F99" stroke-width="1.2"/>
<path d="M126 352.217V351.317M132 352.217V351.317" stroke="#838F99" stroke-width="1.2" stroke-linecap="round"/>
<path d="M141.696 354.412C141.744 353.668 142.028 353.088 142.548 352.672C143.076 352.256 143.748 352.048 144.564 352.048C145.124 352.048 145.608 352.148 146.016 352.348C146.424 352.548 146.732 352.82 146.94 353.164C147.148 353.508 147.252 353.896 147.252 354.328C147.252 354.824 147.12 355.248 146.856 355.6C146.592 355.952 146.276 356.188 145.908 356.308V356.356C146.38 356.5 146.748 356.764 147.012 357.148C147.276 357.524 147.408 358.008 147.408 358.6C147.408 359.072 147.3 359.492 147.084 359.86C146.868 360.228 146.548 360.52 146.124 360.736C145.7 360.944 145.192 361.048 144.6 361.048C143.736 361.048 143.024 360.828 142.464 360.388C141.912 359.94 141.616 359.3 141.576 358.468H142.896C142.928 358.892 143.092 359.24 143.388 359.512C143.684 359.776 144.084 359.908 144.588 359.908C145.076 359.908 145.452 359.776 145.716 359.512C145.98 359.24 146.112 358.892 146.112 358.468C146.112 357.908 145.932 357.512 145.572 357.28C145.22 357.04 144.676 356.92 143.94 356.92H143.628V355.792H143.952C144.6 355.784 145.092 355.676 145.428 355.468C145.772 355.26 145.944 354.932 145.944 354.484C145.944 354.1 145.82 353.796 145.572 353.572C145.324 353.34 144.972 353.224 144.516 353.224C144.068 353.224 143.72 353.34 143.472 353.572C143.224 353.796 143.076 354.076 143.028 354.412H141.696ZM150.393 355.348C150.593 355.012 150.857 354.752 151.185 354.568C151.521 354.376 151.917 354.28 152.373 354.28V355.696H152.025C151.489 355.696 151.081 355.832 150.801 356.104C150.529 356.376 150.393 356.848 150.393 357.52V361H149.025V354.388H150.393V355.348ZM153.174 357.664C153.174 357 153.31 356.412 153.582 355.9C153.862 355.388 154.238 354.992 154.71 354.712C155.19 354.424 155.722 354.28 156.306 354.28C156.738 354.28 157.162 354.376 157.578 354.568C158.002 354.752 158.338 355 158.586 355.312V352.12H159.966V361H158.586V360.004C158.362 360.324 158.05 360.588 157.65 360.796C157.258 361.004 156.806 361.108 156.294 361.108C155.718 361.108 155.19 360.964 154.71 360.676C154.238 360.38 153.862 359.972 153.582 359.452C153.31 358.924 153.174 358.328 153.174 357.664ZM158.586 357.688C158.586 357.232 158.49 356.836 158.298 356.5C158.114 356.164 157.87 355.908 157.566 355.732C157.262 355.556 156.934 355.468 156.582 355.468C156.23 355.468 155.902 355.556 155.598 355.732C155.294 355.9 155.046 356.152 154.854 356.488C154.67 356.816 154.578 357.208 154.578 357.664C154.578 358.12 154.67 358.52 154.854 358.864C155.046 359.208 155.294 359.472 155.598 359.656C155.91 359.832 156.238 359.92 156.582 359.92C156.934 359.92 157.262 359.832 157.566 359.656C157.87 359.48 158.114 359.224 158.298 358.888C158.49 358.544 158.586 358.144 158.586 357.688ZM173.664 352.66V361H172.296V355.288L169.752 361H168.804L166.248 355.288V361H164.88V352.66H166.356L169.284 359.2L172.2 352.66H173.664ZM175.007 357.664C175.007 357 175.143 356.412 175.415 355.9C175.695 355.388 176.071 354.992 176.543 354.712C177.023 354.424 177.551 354.28 178.127 354.28C178.647 354.28 179.099 354.384 179.483 354.592C179.875 354.792 180.187 355.044 180.419 355.348V354.388H181.799V361H180.419V360.016C180.187 360.328 179.871 360.588 179.471 360.796C179.071 361.004 178.615 361.108 178.103 361.108C177.535 361.108 177.015 360.964 176.543 360.676C176.071 360.38 175.695 359.972 175.415 359.452C175.143 358.924 175.007 358.328 175.007 357.664ZM180.419 357.688C180.419 357.232 180.323 356.836 180.131 356.5C179.947 356.164 179.703 355.908 179.399 355.732C179.095 355.556 178.767 355.468 178.415 355.468C178.063 355.468 177.735 355.556 177.431 355.732C177.127 355.9 176.879 356.152 176.687 356.488C176.503 356.816 176.411 357.208 176.411 357.664C176.411 358.12 176.503 358.52 176.687 358.864C176.879 359.208 177.127 359.472 177.431 359.656C177.743 359.832 178.071 359.92 178.415 359.92C178.767 359.92 179.095 359.832 179.399 359.656C179.703 359.48 179.947 359.224 180.131 358.888C180.323 358.544 180.419 358.144 180.419 357.688ZM189.547 354.388L185.491 364.108H184.075L185.419 360.892L182.815 354.388H184.339L186.199 359.428L188.131 354.388H189.547ZM192.08 359.356L190.628 362.668H189.74L190.592 359.356H192.08ZM196.968 359.14C197.736 358.476 198.34 357.932 198.78 357.508C199.228 357.076 199.6 356.628 199.896 356.164C200.192 355.7 200.34 355.236 200.34 354.772C200.34 354.292 200.224 353.916 199.992 353.644C199.768 353.372 199.412 353.236 198.924 353.236C198.452 353.236 198.084 353.388 197.82 353.692C197.564 353.988 197.428 354.388 197.412 354.892H196.092C196.116 353.98 196.388 353.284 196.908 352.804C197.436 352.316 198.104 352.072 198.912 352.072C199.784 352.072 200.464 352.312 200.952 352.792C201.448 353.272 201.696 353.912 201.696 354.712C201.696 355.288 201.548 355.844 201.252 356.38C200.964 356.908 200.616 357.384 200.208 357.808C199.808 358.224 199.296 358.708 198.672 359.26L198.132 359.74H201.936V360.88H196.104V359.884L196.968 359.14ZM203.138 356.512C203.138 355.128 203.37 354.048 203.834 353.272C204.306 352.488 205.114 352.096 206.258 352.096C207.402 352.096 208.206 352.488 208.67 353.272C209.142 354.048 209.378 355.128 209.378 356.512C209.378 357.912 209.142 359.008 208.67 359.8C208.206 360.584 207.402 360.976 206.258 360.976C205.114 360.976 204.306 360.584 203.834 359.8C203.37 359.008 203.138 357.912 203.138 356.512ZM208.034 356.512C208.034 355.864 207.99 355.316 207.902 354.868C207.822 354.42 207.654 354.056 207.398 353.776C207.142 353.488 206.762 353.344 206.258 353.344C205.754 353.344 205.374 353.488 205.118 353.776C204.862 354.056 204.69 354.42 204.602 354.868C204.522 355.316 204.482 355.864 204.482 356.512C204.482 357.184 204.522 357.748 204.602 358.204C204.682 358.66 204.85 359.028 205.106 359.308C205.37 359.588 205.754 359.728 206.258 359.728C206.762 359.728 207.142 359.588 207.398 359.308C207.662 359.028 207.834 358.66 207.914 358.204C207.994 357.748 208.034 357.184 208.034 356.512ZM211.581 359.14C212.349 358.476 212.953 357.932 213.393 357.508C213.841 357.076 214.213 356.628 214.509 356.164C214.805 355.7 214.953 355.236 214.953 354.772C214.953 354.292 214.837 353.916 214.605 353.644C214.381 353.372 214.025 353.236 213.537 353.236C213.065 353.236 212.697 353.388 212.433 353.692C212.177 353.988 212.041 354.388 212.025 354.892H210.705C210.729 353.98 211.001 353.284 211.521 352.804C212.049 352.316 212.717 352.072 213.525 352.072C214.397 352.072 215.077 352.312 215.565 352.792C216.061 353.272 216.309 353.912 216.309 354.712C216.309 355.288 216.161 355.844 215.865 356.38C215.577 356.908 215.229 357.384 214.821 357.808C214.421 358.224 213.909 358.708 213.285 359.26L212.745 359.74H216.549V360.88H210.717V359.884L211.581 359.14ZM217.727 354.412C217.775 353.668 218.059 353.088 218.579 352.672C219.107 352.256 219.779 352.048 220.595 352.048C221.155 352.048 221.639 352.148 222.047 352.348C222.455 352.548 222.763 352.82 222.971 353.164C223.179 353.508 223.283 353.896 223.283 354.328C223.283 354.824 223.151 355.248 222.887 355.6C222.623 355.952 222.307 356.188 221.939 356.308V356.356C222.411 356.5 222.779 356.764 223.043 357.148C223.307 357.524 223.439 358.008 223.439 358.6C223.439 359.072 223.331 359.492 223.115 359.86C222.899 360.228 222.579 360.52 222.155 360.736C221.731 360.944 221.223 361.048 220.631 361.048C219.767 361.048 219.055 360.828 218.495 360.388C217.943 359.94 217.647 359.3 217.607 358.468H218.927C218.959 358.892 219.123 359.24 219.419 359.512C219.715 359.776 220.115 359.908 220.619 359.908C221.107 359.908 221.483 359.776 221.747 359.512C222.011 359.24 222.143 358.892 222.143 358.468C222.143 357.908 221.963 357.512 221.603 357.28C221.251 357.04 220.707 356.92 219.971 356.92H219.659V355.792H219.983C220.631 355.784 221.123 355.676 221.459 355.468C221.803 355.26 221.975 354.932 221.975 354.484C221.975 354.1 221.851 353.796 221.603 353.572C221.355 353.34 221.003 353.224 220.547 353.224C220.099 353.224 219.751 353.34 219.503 353.572C219.255 353.796 219.107 354.076 219.059 354.412H217.727Z" fill="#838F99"/>
<path d="M271.5 34.5C271.5 28.9772 275.977 24.5 281.5 24.5H335.5C341.023 24.5 345.5 28.9772 345.5 34.5C345.5 40.0228 341.023 44.5 335.5 44.5H281.5C275.977 44.5 271.5 40.0228 271.5 34.5Z" stroke="#525A65"/>
<path d="M285.12 34.87H283.1V36.94H282.04V34.87H280.02V33.91H282.04V31.84H283.1V33.91H285.12V34.87ZM293.676 36.58H290.766L290.266 38H289.076L291.566 31.04H292.886L295.376 38H294.176L293.676 36.58ZM293.356 35.65L292.226 32.42L291.086 35.65H293.356ZM296.079 35.22C296.079 34.6667 296.192 34.1767 296.419 33.75C296.652 33.3233 296.966 32.9933 297.359 32.76C297.759 32.52 298.202 32.4 298.689 32.4C299.049 32.4 299.402 32.48 299.749 32.64C300.102 32.7933 300.382 33 300.589 33.26V30.6H301.739V38H300.589V37.17C300.402 37.4367 300.142 37.6567 299.809 37.83C299.482 38.0033 299.106 38.09 298.679 38.09C298.199 38.09 297.759 37.97 297.359 37.73C296.966 37.4833 296.652 37.1433 296.419 36.71C296.192 36.27 296.079 35.7733 296.079 35.22ZM300.589 35.24C300.589 34.86 300.509 34.53 300.349 34.25C300.196 33.97 299.992 33.7567 299.739 33.61C299.486 33.4633 299.212 33.39 298.919 33.39C298.626 33.39 298.352 33.4633 298.099 33.61C297.846 33.75 297.639 33.96 297.479 34.24C297.326 34.5133 297.249 34.84 297.249 35.22C297.249 35.6 297.326 35.9333 297.479 36.22C297.639 36.5067 297.846 36.7267 298.099 36.88C298.359 37.0267 298.632 37.1 298.919 37.1C299.212 37.1 299.486 37.0267 299.739 36.88C299.992 36.7333 300.196 36.52 300.349 36.24C300.509 35.9533 300.589 35.62 300.589 35.24ZM302.856 35.22C302.856 34.6667 302.97 34.1767 303.196 33.75C303.43 33.3233 303.743 32.9933 304.136 32.76C304.536 32.52 304.98 32.4 305.466 32.4C305.826 32.4 306.18 32.48 306.526 32.64C306.88 32.7933 307.16 33 307.366 33.26V30.6H308.516V38H307.366V37.17C307.18 37.4367 306.92 37.6567 306.586 37.83C306.26 38.0033 305.883 38.09 305.456 38.09C304.976 38.09 304.536 37.97 304.136 37.73C303.743 37.4833 303.43 37.1433 303.196 36.71C302.97 36.27 302.856 35.7733 302.856 35.22ZM307.366 35.24C307.366 34.86 307.286 34.53 307.126 34.25C306.973 33.97 306.77 33.7567 306.516 33.61C306.263 33.4633 305.99 33.39 305.696 33.39C305.403 33.39 305.13 33.4633 304.876 33.61C304.623 33.75 304.416 33.96 304.256 34.24C304.103 34.5133 304.026 34.84 304.026 35.22C304.026 35.6 304.103 35.9333 304.256 36.22C304.416 36.5067 304.623 36.7267 304.876 36.88C305.136 37.0267 305.41 37.1 305.696 37.1C305.99 37.1 306.263 37.0267 306.516 36.88C306.77 36.7333 306.973 36.52 307.126 36.24C307.286 35.9533 307.366 35.62 307.366 35.24ZM319.931 31.05V38H318.791V33.24L316.671 38H315.881L313.751 33.24V38H312.611V31.05H313.841L316.281 36.5L318.711 31.05H319.931ZM323.82 38.09C323.3 38.09 322.83 37.9733 322.41 37.74C321.99 37.5 321.66 37.1667 321.42 36.74C321.18 36.3067 321.06 35.8067 321.06 35.24C321.06 34.68 321.183 34.1833 321.43 33.75C321.676 33.3167 322.013 32.9833 322.44 32.75C322.866 32.5167 323.343 32.4 323.87 32.4C324.396 32.4 324.873 32.5167 325.3 32.75C325.726 32.9833 326.063 33.3167 326.31 33.75C326.556 34.1833 326.68 34.68 326.68 35.24C326.68 35.8 326.553 36.2967 326.3 36.73C326.046 37.1633 325.7 37.5 325.26 37.74C324.826 37.9733 324.346 38.09 323.82 38.09ZM323.82 37.1C324.113 37.1 324.386 37.03 324.64 36.89C324.9 36.75 325.11 36.54 325.27 36.26C325.43 35.98 325.51 35.64 325.51 35.24C325.51 34.84 325.433 34.5033 325.28 34.23C325.126 33.95 324.923 33.74 324.67 33.6C324.416 33.46 324.143 33.39 323.85 33.39C323.556 33.39 323.283 33.46 323.03 33.6C322.783 33.74 322.586 33.95 322.44 34.23C322.293 34.5033 322.22 34.84 322.22 35.24C322.22 35.8333 322.37 36.2933 322.67 36.62C322.976 36.94 323.36 37.1 323.82 37.1ZM328.947 33.29C329.113 33.01 329.333 32.7933 329.607 32.64C329.887 32.48 330.217 32.4 330.597 32.4V33.58H330.307C329.86 33.58 329.52 33.6933 329.287 33.92C329.06 34.1467 328.947 34.54 328.947 35.1V38H327.807V32.49H328.947V33.29ZM336.695 35.11C336.695 35.3167 336.681 35.5033 336.655 35.67H332.445C332.478 36.11 332.641 36.4633 332.935 36.73C333.228 36.9967 333.588 37.13 334.015 37.13C334.628 37.13 335.061 36.8733 335.315 36.36H336.545C336.378 36.8667 336.075 37.2833 335.635 37.61C335.201 37.93 334.661 38.09 334.015 38.09C333.488 38.09 333.015 37.9733 332.595 37.74C332.181 37.5 331.855 37.1667 331.615 36.74C331.381 36.3067 331.265 35.8067 331.265 35.24C331.265 34.6733 331.378 34.1767 331.605 33.75C331.838 33.3167 332.161 32.9833 332.575 32.75C332.995 32.5167 333.475 32.4 334.015 32.4C334.535 32.4 334.998 32.5133 335.405 32.74C335.811 32.9667 336.128 33.2867 336.355 33.7C336.581 34.1067 336.695 34.5767 336.695 35.11ZM335.505 34.75C335.498 34.33 335.348 33.9933 335.055 33.74C334.761 33.4867 334.398 33.36 333.965 33.36C333.571 33.36 333.235 33.4867 332.955 33.74C332.675 33.9867 332.508 34.3233 332.455 34.75H335.505Z" fill="#525A65"/>
<path d="M24.7 84C24.7 82.6267 25.0067 81.4 25.62 80.32C26.2467 79.2267 27.0933 78.38 28.16 77.78C29.24 77.1667 30.4467 76.86 31.78 76.86C33.34 76.86 34.7067 77.26 35.88 78.06C37.0533 78.86 37.8733 79.9667 38.34 81.38H35.12C34.8 80.7133 34.3467 80.2133 33.76 79.88C33.1867 79.5467 32.52 79.38 31.76 79.38C30.9467 79.38 30.22 79.5733 29.58 79.96C28.9533 80.3333 28.46 80.8667 28.1 81.56C27.7533 82.2533 27.58 83.0667 27.58 84C27.58 84.92 27.7533 85.7333 28.1 86.44C28.46 87.1333 28.9533 87.6733 29.58 88.06C30.22 88.4333 30.9467 88.62 31.76 88.62C32.52 88.62 33.1867 88.4533 33.76 88.12C34.3467 87.7733 34.8 87.2667 35.12 86.6H38.34C37.8733 88.0267 37.0533 89.14 35.88 89.94C34.72 90.7267 33.3533 91.12 31.78 91.12C30.4467 91.12 29.24 90.82 28.16 90.22C27.0933 89.6067 26.2467 88.76 25.62 87.68C25.0067 86.6 24.7 85.3733 24.7 84ZM43.5316 81.64C43.8916 81.0533 44.3582 80.5933 44.9316 80.26C45.5182 79.9267 46.1849 79.76 46.9316 79.76V82.7H46.1916C45.3116 82.7 44.6449 82.9067 44.1916 83.32C43.7516 83.7333 43.5316 84.4533 43.5316 85.48V91H40.7316V79.92H43.5316V81.64ZM59.1175 85.22C59.1175 85.62 59.0908 85.98 59.0375 86.3H50.9375C51.0042 87.1 51.2842 87.7267 51.7775 88.18C52.2708 88.6333 52.8775 88.86 53.5975 88.86C54.6375 88.86 55.3775 88.4133 55.8175 87.52H58.8375C58.5175 88.5867 57.9042 89.4667 56.9975 90.16C56.0908 90.84 54.9775 91.18 53.6575 91.18C52.5908 91.18 51.6308 90.9467 50.7775 90.48C49.9375 90 49.2775 89.3267 48.7975 88.46C48.3308 87.5933 48.0975 86.5933 48.0975 85.46C48.0975 84.3133 48.3308 83.3067 48.7975 82.44C49.2642 81.5733 49.9175 80.9067 50.7575 80.44C51.5975 79.9733 52.5642 79.74 53.6575 79.74C54.7108 79.74 55.6508 79.9667 56.4775 80.42C57.3175 80.8733 57.9642 81.52 58.4175 82.36C58.8842 83.1867 59.1175 84.14 59.1175 85.22ZM56.2175 84.42C56.2042 83.7 55.9442 83.1267 55.4375 82.7C54.9308 82.26 54.3108 82.04 53.5775 82.04C52.8842 82.04 52.2975 82.2533 51.8175 82.68C51.3508 83.0933 51.0642 83.6733 50.9575 84.42H56.2175ZM60.4412 85.42C60.4412 84.3 60.6612 83.3067 61.1012 82.44C61.5546 81.5733 62.1613 80.9067 62.9213 80.44C63.6946 79.9733 64.5546 79.74 65.5013 79.74C66.3279 79.74 67.0479 79.9067 67.6613 80.24C68.2879 80.5733 68.7879 80.9933 69.1613 81.5V79.92H71.9813V91H69.1613V89.38C68.8013 89.9 68.3013 90.3333 67.6613 90.68C67.0346 91.0133 66.3079 91.18 65.4813 91.18C64.5479 91.18 63.6946 90.94 62.9213 90.46C62.1613 89.98 61.5546 89.3067 61.1012 88.44C60.6612 87.56 60.4412 86.5533 60.4412 85.42ZM69.1613 85.46C69.1613 84.78 69.0279 84.2 68.7613 83.72C68.4946 83.2267 68.1346 82.8533 67.6813 82.6C67.2279 82.3333 66.7413 82.2 66.2213 82.2C65.7013 82.2 65.2213 82.3267 64.7812 82.58C64.3413 82.8333 63.9813 83.2067 63.7013 83.7C63.4346 84.18 63.3013 84.7533 63.3013 85.42C63.3013 86.0867 63.4346 86.6733 63.7013 87.18C63.9813 87.6733 64.3413 88.0533 64.7812 88.32C65.2346 88.5867 65.7146 88.72 66.2213 88.72C66.7413 88.72 67.2279 88.5933 67.6813 88.34C68.1346 88.0733 68.4946 87.7 68.7613 87.22C69.0279 86.7267 69.1613 86.14 69.1613 85.46ZM77.9759 82.22V87.58C77.9759 87.9533 78.0626 88.2267 78.2359 88.4C78.4226 88.56 78.7293 88.64 79.1559 88.64H80.4559V91H78.6959C76.3359 91 75.1559 89.8533 75.1559 87.56V82.22H73.8359V79.92H75.1559V77.18H77.9759V79.92H80.4559V82.22H77.9759ZM92.7698 85.22C92.7698 85.62 92.7432 85.98 92.6898 86.3H84.5898C84.6565 87.1 84.9365 87.7267 85.4298 88.18C85.9232 88.6333 86.5298 88.86 87.2498 88.86C88.2898 88.86 89.0298 88.4133 89.4698 87.52H92.4898C92.1698 88.5867 91.5565 89.4667 90.6498 90.16C89.7432 90.84 88.6298 91.18 87.3098 91.18C86.2432 91.18 85.2832 90.9467 84.4298 90.48C83.5898 90 82.9298 89.3267 82.4498 88.46C81.9832 87.5933 81.7498 86.5933 81.7498 85.46C81.7498 84.3133 81.9832 83.3067 82.4498 82.44C82.9165 81.5733 83.5698 80.9067 84.4098 80.44C85.2498 79.9733 86.2165 79.74 87.3098 79.74C88.3632 79.74 89.3032 79.9667 90.1298 80.42C90.9698 80.8733 91.6165 81.52 92.0698 82.36C92.5365 83.1867 92.7698 84.14 92.7698 85.22ZM89.8698 84.42C89.8565 83.7 89.5965 83.1267 89.0898 82.7C88.5832 82.26 87.9632 82.04 87.2298 82.04C86.5365 82.04 85.9498 82.2533 85.4698 82.68C85.0032 83.0933 84.7165 83.6733 84.6098 84.42H89.8698ZM108.139 88.34H102.579L101.659 91H98.7192L103.739 77.02H106.999L112.019 91H109.059L108.139 88.34ZM107.379 86.1L105.359 80.26L103.339 86.1H107.379ZM124.076 81.36C124.076 82.1067 123.896 82.8067 123.536 83.46C123.189 84.1133 122.636 84.64 121.876 85.04C121.129 85.44 120.182 85.64 119.036 85.64H116.696V91H113.896V77.04H119.036C120.116 77.04 121.036 77.2267 121.796 77.6C122.556 77.9733 123.122 78.4867 123.496 79.14C123.882 79.7933 124.076 80.5333 124.076 81.36ZM118.916 83.38C119.689 83.38 120.262 83.2067 120.636 82.86C121.009 82.5 121.196 82 121.196 81.36C121.196 80 120.436 79.32 118.916 79.32H116.696V83.38H118.916ZM128.864 77.04V91H126.064V77.04H128.864ZM139.196 79.3V82.8H143.896V85.02H139.196V88.72H144.496V91H136.396V77.02H144.496V79.3H139.196ZM160.8 79.76C162.16 79.76 163.253 80.18 164.08 81.02C164.92 81.8467 165.34 83.0067 165.34 84.5V91H162.54V84.88C162.54 84.0133 162.32 83.3533 161.88 82.9C161.44 82.4333 160.84 82.2 160.08 82.2C159.32 82.2 158.713 82.4333 158.26 82.9C157.82 83.3533 157.6 84.0133 157.6 84.88V91H154.8V84.88C154.8 84.0133 154.58 83.3533 154.14 82.9C153.7 82.4333 153.1 82.2 152.34 82.2C151.567 82.2 150.953 82.4333 150.5 82.9C150.06 83.3533 149.84 84.0133 149.84 84.88V91H147.04V79.92H149.84V81.26C150.2 80.7933 150.66 80.4267 151.22 80.16C151.793 79.8933 152.42 79.76 153.1 79.76C153.967 79.76 154.74 79.9467 155.42 80.32C156.1 80.68 156.627 81.2 157 81.88C157.36 81.24 157.88 80.7267 158.56 80.34C159.253 79.9533 160 79.76 160.8 79.76ZM170.797 81.52C171.157 81.0133 171.651 80.5933 172.277 80.26C172.917 79.9133 173.644 79.74 174.457 79.74C175.404 79.74 176.257 79.9733 177.017 80.44C177.791 80.9067 178.397 81.5733 178.837 82.44C179.291 83.2933 179.517 84.2867 179.517 85.42C179.517 86.5533 179.291 87.56 178.837 88.44C178.397 89.3067 177.791 89.98 177.017 90.46C176.257 90.94 175.404 91.18 174.457 91.18C173.644 91.18 172.924 91.0133 172.297 90.68C171.684 90.3467 171.184 89.9267 170.797 89.42V96.28H167.997V79.92H170.797V81.52ZM176.657 85.42C176.657 84.7533 176.517 84.18 176.237 83.7C175.971 83.2067 175.611 82.8333 175.157 82.58C174.717 82.3267 174.237 82.2 173.717 82.2C173.211 82.2 172.731 82.3333 172.277 82.6C171.837 82.8533 171.477 83.2267 171.197 83.72C170.931 84.2133 170.797 84.7933 170.797 85.46C170.797 86.1267 170.931 86.7067 171.197 87.2C171.477 87.6933 171.837 88.0733 172.277 88.34C172.731 88.5933 173.211 88.72 173.717 88.72C174.237 88.72 174.717 88.5867 175.157 88.32C175.611 88.0533 175.971 87.6733 176.237 87.18C176.517 86.6867 176.657 86.1 176.657 85.42ZM184.352 76.2V91H181.552V76.2H184.352ZM192.038 91.18C190.972 91.18 190.012 90.9467 189.158 90.48C188.305 90 187.632 89.3267 187.138 88.46C186.658 87.5933 186.418 86.5933 186.418 85.46C186.418 84.3267 186.665 83.3267 187.158 82.46C187.665 81.5933 188.352 80.9267 189.218 80.46C190.085 79.98 191.052 79.74 192.118 79.74C193.185 79.74 194.152 79.98 195.018 80.46C195.885 80.9267 196.565 81.5933 197.058 82.46C197.565 83.3267 197.818 84.3267 197.818 85.46C197.818 86.5933 197.558 87.5933 197.038 88.46C196.532 89.3267 195.838 90 194.958 90.48C194.092 90.9467 193.118 91.18 192.038 91.18ZM192.038 88.74C192.545 88.74 193.018 88.62 193.458 88.38C193.912 88.1267 194.272 87.7533 194.538 87.26C194.805 86.7667 194.938 86.1667 194.938 85.46C194.938 84.4067 194.658 83.6 194.098 83.04C193.552 82.4667 192.878 82.18 192.078 82.18C191.278 82.18 190.605 82.4667 190.058 83.04C189.525 83.6 189.258 84.4067 189.258 85.46C189.258 86.5133 189.518 87.3267 190.038 87.9C190.572 88.46 191.238 88.74 192.038 88.74ZM210.472 79.92L203.612 96.24H200.632L203.032 90.72L198.592 79.92H201.732L204.592 87.66L207.492 79.92H210.472ZM222.282 85.22C222.282 85.62 222.255 85.98 222.202 86.3H214.102C214.168 87.1 214.448 87.7267 214.942 88.18C215.435 88.6333 216.042 88.86 216.762 88.86C217.802 88.86 218.542 88.4133 218.982 87.52H222.002C221.682 88.5867 221.068 89.4667 220.162 90.16C219.255 90.84 218.142 91.18 216.822 91.18C215.755 91.18 214.795 90.9467 213.942 90.48C213.102 90 212.442 89.3267 211.962 88.46C211.495 87.5933 211.262 86.5933 211.262 85.46C211.262 84.3133 211.495 83.3067 211.962 82.44C212.428 81.5733 213.082 80.9067 213.922 80.44C214.762 79.9733 215.728 79.74 216.822 79.74C217.875 79.74 218.815 79.9667 219.642 80.42C220.482 80.8733 221.128 81.52 221.582 82.36C222.048 83.1867 222.282 84.14 222.282 85.22ZM219.382 84.42C219.368 83.7 219.108 83.1267 218.602 82.7C218.095 82.26 217.475 82.04 216.742 82.04C216.048 82.04 215.462 82.2533 214.982 82.68C214.515 83.0933 214.228 83.6733 214.122 84.42H219.382ZM234.625 85.22C234.625 85.62 234.599 85.98 234.545 86.3H226.445C226.512 87.1 226.792 87.7267 227.285 88.18C227.779 88.6333 228.385 88.86 229.105 88.86C230.145 88.86 230.885 88.4133 231.325 87.52H234.345C234.025 88.5867 233.412 89.4667 232.505 90.16C231.599 90.84 230.485 91.18 229.165 91.18C228.099 91.18 227.139 90.9467 226.285 90.48C225.445 90 224.785 89.3267 224.305 88.46C223.839 87.5933 223.605 86.5933 223.605 85.46C223.605 84.3133 223.839 83.3067 224.305 82.44C224.772 81.5733 225.425 80.9067 226.265 80.44C227.105 79.9733 228.072 79.74 229.165 79.74C230.219 79.74 231.159 79.9667 231.985 80.42C232.825 80.8733 233.472 81.52 233.925 82.36C234.392 83.1867 234.625 84.14 234.625 85.22ZM231.725 84.42C231.712 83.7 231.452 83.1267 230.945 82.7C230.439 82.26 229.819 82.04 229.085 82.04C228.392 82.04 227.805 82.2533 227.325 82.68C226.859 83.0933 226.572 83.6733 226.465 84.42H231.725ZM244.235 88.78H248.835V91H241.435V77.04H244.235V88.78ZM252.034 78.6C251.541 78.6 251.128 78.4467 250.794 78.14C250.474 77.82 250.314 77.4267 250.314 76.96C250.314 76.4933 250.474 76.1067 250.794 75.8C251.128 75.48 251.541 75.32 252.034 75.32C252.528 75.32 252.934 75.48 253.254 75.8C253.588 76.1067 253.754 76.4933 253.754 76.96C253.754 77.4267 253.588 77.82 253.254 78.14C252.934 78.4467 252.528 78.6 252.034 78.6ZM253.414 79.92V91H250.614V79.92H253.414ZM260.421 91.18C259.514 91.18 258.701 91.02 257.981 90.7C257.261 90.3667 256.687 89.92 256.261 89.36C255.847 88.8 255.621 88.18 255.581 87.5H258.401C258.454 87.9267 258.661 88.28 259.021 88.56C259.394 88.84 259.854 88.98 260.401 88.98C260.934 88.98 261.347 88.8733 261.641 88.66C261.947 88.4467 262.101 88.1733 262.101 87.84C262.101 87.48 261.914 87.2133 261.541 87.04C261.181 86.8533 260.601 86.6533 259.801 86.44C258.974 86.24 258.294 86.0333 257.761 85.82C257.241 85.6067 256.787 85.28 256.401 84.84C256.027 84.4 255.841 83.8067 255.841 83.06C255.841 82.4467 256.014 81.8867 256.361 81.38C256.721 80.8733 257.227 80.4733 257.881 80.18C258.547 79.8867 259.327 79.74 260.221 79.74C261.541 79.74 262.594 80.0733 263.381 80.74C264.167 81.3933 264.601 82.28 264.681 83.4H262.001C261.961 82.96 261.774 82.6133 261.441 82.36C261.121 82.0933 260.687 81.96 260.141 81.96C259.634 81.96 259.241 82.0533 258.961 82.24C258.694 82.4267 258.561 82.6867 258.561 83.02C258.561 83.3933 258.747 83.68 259.121 83.88C259.494 84.0667 260.074 84.26 260.861 84.46C261.661 84.66 262.321 84.8667 262.841 85.08C263.361 85.2933 263.807 85.6267 264.181 86.08C264.567 86.52 264.767 87.1067 264.781 87.84C264.781 88.48 264.601 89.0533 264.241 89.56C263.894 90.0667 263.387 90.4667 262.721 90.76C262.067 91.04 261.301 91.18 260.421 91.18ZM270.339 82.22V87.58C270.339 87.9533 270.426 88.2267 270.599 88.4C270.786 88.56 271.093 88.64 271.519 88.64H272.819V91H271.059C268.699 91 267.519 89.8533 267.519 87.56V82.22H266.199V79.92H267.519V77.18H270.339V79.92H272.819V82.22H270.339Z" fill="#21293B"/>
<path d="M30.846 317.83H26.59L25.806 320H24.462L27.99 310.298H29.46L32.974 320H31.63L30.846 317.83ZM30.482 316.794L28.718 311.866L26.954 316.794H30.482ZM38.2496 312.188C39.1829 312.188 39.9389 312.473 40.5176 313.042C41.0963 313.602 41.3856 314.414 41.3856 315.478V320H40.1256V315.66C40.1256 314.895 39.9343 314.311 39.5516 313.91C39.1689 313.499 38.6463 313.294 37.9836 313.294C37.3116 313.294 36.7749 313.504 36.3736 313.924C35.9816 314.344 35.7856 314.955 35.7856 315.758V320H34.5116V312.328H35.7856V313.42C36.0376 313.028 36.3783 312.725 36.8076 312.51C37.2463 312.295 37.7269 312.188 38.2496 312.188ZM46.7231 316.136C46.7231 315.352 46.8818 314.666 47.1991 314.078C47.5164 313.481 47.9504 313.019 48.5011 312.692C49.0611 312.365 49.6818 312.202 50.3631 312.202C51.0351 312.202 51.6184 312.347 52.1131 312.636C52.6078 312.925 52.9764 313.289 53.2191 313.728V312.328H54.5071V320H53.2191V318.572C52.9671 319.02 52.5891 319.393 52.0851 319.692C51.5904 319.981 51.0118 320.126 50.3491 320.126C49.6678 320.126 49.0518 319.958 48.5011 319.622C47.9504 319.286 47.5164 318.815 47.1991 318.208C46.8818 317.601 46.7231 316.911 46.7231 316.136ZM53.2191 316.15C53.2191 315.571 53.1024 315.067 52.8691 314.638C52.6358 314.209 52.3184 313.882 51.9171 313.658C51.5251 313.425 51.0911 313.308 50.6151 313.308C50.1391 313.308 49.7051 313.42 49.3131 313.644C48.9211 313.868 48.6084 314.195 48.3751 314.624C48.1418 315.053 48.0251 315.557 48.0251 316.136C48.0251 316.724 48.1418 317.237 48.3751 317.676C48.6084 318.105 48.9211 318.437 49.3131 318.67C49.7051 318.894 50.1391 319.006 50.6151 319.006C51.0911 319.006 51.5251 318.894 51.9171 318.67C52.3184 318.437 52.6358 318.105 52.8691 317.676C53.1024 317.237 53.2191 316.729 53.2191 316.15ZM57.934 313.742C58.186 313.303 58.5594 312.939 59.054 312.65C59.558 312.351 60.1414 312.202 60.804 312.202C61.4854 312.202 62.1014 312.365 62.652 312.692C63.212 313.019 63.6507 313.481 63.968 314.078C64.2854 314.666 64.444 315.352 64.444 316.136C64.444 316.911 64.2854 317.601 63.968 318.208C63.6507 318.815 63.212 319.286 62.652 319.622C62.1014 319.958 61.4854 320.126 60.804 320.126C60.1507 320.126 59.572 319.981 59.068 319.692C58.5734 319.393 58.1954 319.025 57.934 318.586V323.64H56.66V312.328H57.934V313.742ZM63.142 316.136C63.142 315.557 63.0254 315.053 62.792 314.624C62.5587 314.195 62.2414 313.868 61.84 313.644C61.448 313.42 61.014 313.308 60.538 313.308C60.0714 313.308 59.6374 313.425 59.236 313.658C58.844 313.882 58.5267 314.213 58.284 314.652C58.0507 315.081 57.934 315.581 57.934 316.15C57.934 316.729 58.0507 317.237 58.284 317.676C58.5267 318.105 58.844 318.437 59.236 318.67C59.6374 318.894 60.0714 319.006 60.538 319.006C61.014 319.006 61.448 318.894 61.84 318.67C62.2414 318.437 62.5587 318.105 62.792 317.676C63.0254 317.237 63.142 316.724 63.142 316.136ZM67.395 313.742C67.647 313.303 68.0203 312.939 68.515 312.65C69.019 312.351 69.6023 312.202 70.265 312.202C70.9463 312.202 71.5623 312.365 72.113 312.692C72.673 313.019 73.1116 313.481 73.429 314.078C73.7463 314.666 73.905 315.352 73.905 316.136C73.905 316.911 73.7463 317.601 73.429 318.208C73.1116 318.815 72.673 319.286 72.113 319.622C71.5623 319.958 70.9463 320.126 70.265 320.126C69.6116 320.126 69.033 319.981 68.529 319.692C68.0343 319.393 67.6563 319.025 67.395 318.586V323.64H66.121V312.328H67.395V313.742ZM72.603 316.136C72.603 315.557 72.4863 315.053 72.253 314.624C72.0196 314.195 71.7023 313.868 71.301 313.644C70.909 313.42 70.475 313.308 69.999 313.308C69.5323 313.308 69.0983 313.425 68.697 313.658C68.305 313.882 67.9876 314.213 67.745 314.652C67.5116 315.081 67.395 315.581 67.395 316.15C67.395 316.729 67.5116 317.237 67.745 317.676C67.9876 318.105 68.305 318.437 68.697 318.67C69.0983 318.894 69.5323 319.006 69.999 319.006C70.475 319.006 70.909 318.894 71.301 318.67C71.7023 318.437 72.0196 318.105 72.253 317.676C72.4863 317.237 72.603 316.724 72.603 316.136ZM76.8559 309.64V320H75.5819V309.64H76.8559ZM79.6852 311.082C79.4426 311.082 79.2372 310.998 79.0692 310.83C78.9012 310.662 78.8172 310.457 78.8172 310.214C78.8172 309.971 78.9012 309.766 79.0692 309.598C79.2372 309.43 79.4426 309.346 79.6852 309.346C79.9186 309.346 80.1146 309.43 80.2732 309.598C80.4412 309.766 80.5252 309.971 80.5252 310.214C80.5252 310.457 80.4412 310.662 80.2732 310.83C80.1146 310.998 79.9186 311.082 79.6852 311.082ZM80.3012 312.328V320H79.0272V312.328H80.3012ZM81.9965 316.15C81.9965 315.357 82.1552 314.666 82.4725 314.078C82.7899 313.481 83.2285 313.019 83.7885 312.692C84.3579 312.365 85.0065 312.202 85.7345 312.202C86.6772 312.202 87.4519 312.431 88.0585 312.888C88.6745 313.345 89.0805 313.98 89.2765 314.792H87.9045C87.7739 314.325 87.5172 313.957 87.1345 313.686C86.7612 313.415 86.2945 313.28 85.7345 313.28C85.0065 313.28 84.4185 313.532 83.9705 314.036C83.5225 314.531 83.2985 315.235 83.2985 316.15C83.2985 317.074 83.5225 317.788 83.9705 318.292C84.4185 318.796 85.0065 319.048 85.7345 319.048C86.2945 319.048 86.7612 318.917 87.1345 318.656C87.5079 318.395 87.7645 318.021 87.9045 317.536H89.2765C89.0712 318.32 88.6605 318.95 88.0445 319.426C87.4285 319.893 86.6585 320.126 85.7345 320.126C85.0065 320.126 84.3579 319.963 83.7885 319.636C83.2285 319.309 82.7899 318.847 82.4725 318.25C82.1552 317.653 81.9965 316.953 81.9965 316.15ZM90.5004 316.136C90.5004 315.352 90.6591 314.666 90.9764 314.078C91.2938 313.481 91.7278 313.019 92.2784 312.692C92.8384 312.365 93.4591 312.202 94.1404 312.202C94.8124 312.202 95.3958 312.347 95.8904 312.636C96.3851 312.925 96.7538 313.289 96.9964 313.728V312.328H98.2844V320H96.9964V318.572C96.7444 319.02 96.3664 319.393 95.8624 319.692C95.3678 319.981 94.7891 320.126 94.1264 320.126C93.4451 320.126 92.8291 319.958 92.2784 319.622C91.7278 319.286 91.2938 318.815 90.9764 318.208C90.6591 317.601 90.5004 316.911 90.5004 316.136ZM96.9964 316.15C96.9964 315.571 96.8798 315.067 96.6464 314.638C96.4131 314.209 96.0958 313.882 95.6944 313.658C95.3024 313.425 94.8684 313.308 94.3924 313.308C93.9164 313.308 93.4824 313.42 93.0904 313.644C92.6984 313.868 92.3858 314.195 92.1524 314.624C91.9191 315.053 91.8024 315.557 91.8024 316.136C91.8024 316.724 91.9191 317.237 92.1524 317.676C92.3858 318.105 92.6984 318.437 93.0904 318.67C93.4824 318.894 93.9164 319.006 94.3924 319.006C94.8684 319.006 95.3024 318.894 95.6944 318.67C96.0958 318.437 96.4131 318.105 96.6464 317.676C96.8798 317.237 96.9964 316.729 96.9964 316.15ZM101.991 313.378V317.9C101.991 318.273 102.071 318.539 102.229 318.698C102.388 318.847 102.663 318.922 103.055 318.922H103.993V320H102.845C102.136 320 101.604 319.837 101.249 319.51C100.895 319.183 100.717 318.647 100.717 317.9V313.378H99.7234V312.328H100.717V310.396H101.991V312.328H103.993V313.378H101.991ZM106.195 311.082C105.952 311.082 105.747 310.998 105.579 310.83C105.411 310.662 105.327 310.457 105.327 310.214C105.327 309.971 105.411 309.766 105.579 309.598C105.747 309.43 105.952 309.346 106.195 309.346C106.428 309.346 106.624 309.43 106.783 309.598C106.951 309.766 107.035 309.971 107.035 310.214C107.035 310.457 106.951 310.662 106.783 310.83C106.624 310.998 106.428 311.082 106.195 311.082ZM106.811 312.328V320H105.537V312.328H106.811ZM112.328 320.126C111.61 320.126 110.956 319.963 110.368 319.636C109.79 319.309 109.332 318.847 108.996 318.25C108.67 317.643 108.506 316.943 108.506 316.15C108.506 315.366 108.674 314.675 109.01 314.078C109.356 313.471 109.822 313.009 110.41 312.692C110.998 312.365 111.656 312.202 112.384 312.202C113.112 312.202 113.77 312.365 114.358 312.692C114.946 313.009 115.408 313.467 115.744 314.064C116.09 314.661 116.262 315.357 116.262 316.15C116.262 316.943 116.085 317.643 115.73 318.25C115.385 318.847 114.914 319.309 114.316 319.636C113.719 319.963 113.056 320.126 112.328 320.126ZM112.328 319.006C112.786 319.006 113.215 318.899 113.616 318.684C114.018 318.469 114.34 318.147 114.582 317.718C114.834 317.289 114.96 316.766 114.96 316.15C114.96 315.534 114.839 315.011 114.596 314.582C114.354 314.153 114.036 313.835 113.644 313.63C113.252 313.415 112.828 313.308 112.37 313.308C111.904 313.308 111.474 313.415 111.082 313.63C110.7 313.835 110.392 314.153 110.158 314.582C109.925 315.011 109.808 315.534 109.808 316.15C109.808 316.775 109.92 317.303 110.144 317.732C110.378 318.161 110.686 318.483 111.068 318.698C111.451 318.903 111.871 319.006 112.328 319.006ZM121.675 312.188C122.609 312.188 123.365 312.473 123.943 313.042C124.522 313.602 124.811 314.414 124.811 315.478V320H123.551V315.66C123.551 314.895 123.36 314.311 122.977 313.91C122.595 313.499 122.072 313.294 121.409 313.294C120.737 313.294 120.201 313.504 119.799 313.924C119.407 314.344 119.211 314.955 119.211 315.758V320H117.937V312.328H119.211V313.42C119.463 313.028 119.804 312.725 120.233 312.51C120.672 312.295 121.153 312.188 121.675 312.188ZM131.899 313.742C132.151 313.303 132.524 312.939 133.019 312.65C133.523 312.351 134.106 312.202 134.769 312.202C135.45 312.202 136.066 312.365 136.617 312.692C137.177 313.019 137.616 313.481 137.933 314.078C138.25 314.666 138.409 315.352 138.409 316.136C138.409 316.911 138.25 317.601 137.933 318.208C137.616 318.815 137.177 319.286 136.617 319.622C136.066 319.958 135.45 320.126 134.769 320.126C134.116 320.126 133.537 319.981 133.033 319.692C132.538 319.393 132.16 319.025 131.899 318.586V323.64H130.625V312.328H131.899V313.742ZM137.107 316.136C137.107 315.557 136.99 315.053 136.757 314.624C136.524 314.195 136.206 313.868 135.805 313.644C135.413 313.42 134.979 313.308 134.503 313.308C134.036 313.308 133.602 313.425 133.201 313.658C132.809 313.882 132.492 314.213 132.249 314.652C132.016 315.081 131.899 315.581 131.899 316.15C131.899 316.729 132.016 317.237 132.249 317.676C132.492 318.105 132.809 318.437 133.201 318.67C133.602 318.894 134.036 319.006 134.503 319.006C134.979 319.006 135.413 318.894 135.805 318.67C136.206 318.437 136.524 318.105 136.757 317.676C136.99 317.237 137.107 316.724 137.107 316.136ZM141.36 313.574C141.584 313.135 141.901 312.795 142.312 312.552C142.732 312.309 143.24 312.188 143.838 312.188V313.504H143.502C142.074 313.504 141.36 314.279 141.36 315.828V320H140.086V312.328H141.36V313.574ZM148.654 320.126C147.936 320.126 147.282 319.963 146.694 319.636C146.116 319.309 145.658 318.847 145.322 318.25C144.996 317.643 144.832 316.943 144.832 316.15C144.832 315.366 145 314.675 145.336 314.078C145.682 313.471 146.148 313.009 146.736 312.692C147.324 312.365 147.982 312.202 148.71 312.202C149.438 312.202 150.096 312.365 150.684 312.692C151.272 313.009 151.734 313.467 152.07 314.064C152.416 314.661 152.588 315.357 152.588 316.15C152.588 316.943 152.411 317.643 152.056 318.25C151.711 318.847 151.24 319.309 150.642 319.636C150.045 319.963 149.382 320.126 148.654 320.126ZM148.654 319.006C149.112 319.006 149.541 318.899 149.942 318.684C150.344 318.469 150.666 318.147 150.908 317.718C151.16 317.289 151.286 316.766 151.286 316.15C151.286 315.534 151.165 315.011 150.922 314.582C150.68 314.153 150.362 313.835 149.97 313.63C149.578 313.415 149.154 313.308 148.696 313.308C148.23 313.308 147.8 313.415 147.408 313.63C147.026 313.835 146.718 314.153 146.484 314.582C146.251 315.011 146.134 315.534 146.134 316.15C146.134 316.775 146.246 317.303 146.47 317.732C146.704 318.161 147.012 318.483 147.394 318.698C147.777 318.903 148.197 319.006 148.654 319.006ZM157.428 312.202C158.09 312.202 158.669 312.347 159.164 312.636C159.668 312.925 160.041 313.289 160.284 313.728V312.328H161.572V320.168C161.572 320.868 161.422 321.489 161.124 322.03C160.825 322.581 160.396 323.01 159.836 323.318C159.285 323.626 158.641 323.78 157.904 323.78C156.896 323.78 156.056 323.542 155.384 323.066C154.712 322.59 154.315 321.941 154.194 321.12H155.454C155.594 321.587 155.883 321.96 156.322 322.24C156.76 322.529 157.288 322.674 157.904 322.674C158.604 322.674 159.173 322.455 159.612 322.016C160.06 321.577 160.284 320.961 160.284 320.168V318.558C160.032 319.006 159.658 319.379 159.164 319.678C158.669 319.977 158.09 320.126 157.428 320.126C156.746 320.126 156.126 319.958 155.566 319.622C155.015 319.286 154.581 318.815 154.264 318.208C153.946 317.601 153.788 316.911 153.788 316.136C153.788 315.352 153.946 314.666 154.264 314.078C154.581 313.481 155.015 313.019 155.566 312.692C156.126 312.365 156.746 312.202 157.428 312.202ZM160.284 316.15C160.284 315.571 160.167 315.067 159.934 314.638C159.7 314.209 159.383 313.882 158.982 313.658C158.59 313.425 158.156 313.308 157.68 313.308C157.204 313.308 156.77 313.42 156.378 313.644C155.986 313.868 155.673 314.195 155.44 314.624C155.206 315.053 155.09 315.557 155.09 316.136C155.09 316.724 155.206 317.237 155.44 317.676C155.673 318.105 155.986 318.437 156.378 318.67C156.77 318.894 157.204 319.006 157.68 319.006C158.156 319.006 158.59 318.894 158.982 318.67C159.383 318.437 159.7 318.105 159.934 317.676C160.167 317.237 160.284 316.729 160.284 316.15ZM164.998 313.574C165.222 313.135 165.54 312.795 165.95 312.552C166.37 312.309 166.879 312.188 167.476 312.188V313.504H167.14C165.712 313.504 164.998 314.279 164.998 315.828V320H163.724V312.328H164.998V313.574ZM168.471 316.136C168.471 315.352 168.63 314.666 168.947 314.078C169.264 313.481 169.698 313.019 170.249 312.692C170.809 312.365 171.43 312.202 172.111 312.202C172.783 312.202 173.366 312.347 173.861 312.636C174.356 312.925 174.724 313.289 174.967 313.728V312.328H176.255V320H174.967V318.572C174.715 319.02 174.337 319.393 173.833 319.692C173.338 319.981 172.76 320.126 172.097 320.126C171.416 320.126 170.8 319.958 170.249 319.622C169.698 319.286 169.264 318.815 168.947 318.208C168.63 317.601 168.471 316.911 168.471 316.136ZM174.967 316.15C174.967 315.571 174.85 315.067 174.617 314.638C174.384 314.209 174.066 313.882 173.665 313.658C173.273 313.425 172.839 313.308 172.363 313.308C171.887 313.308 171.453 313.42 171.061 313.644C170.669 313.868 170.356 314.195 170.123 314.624C169.89 315.053 169.773 315.557 169.773 316.136C169.773 316.724 169.89 317.237 170.123 317.676C170.356 318.105 170.669 318.437 171.061 318.67C171.453 318.894 171.887 319.006 172.363 319.006C172.839 319.006 173.273 318.894 173.665 318.67C174.066 318.437 174.384 318.105 174.617 317.676C174.85 317.237 174.967 316.729 174.967 316.15ZM187.634 312.188C188.231 312.188 188.763 312.314 189.23 312.566C189.697 312.809 190.065 313.177 190.336 313.672C190.607 314.167 190.742 314.769 190.742 315.478V320H189.482V315.66C189.482 314.895 189.291 314.311 188.908 313.91C188.535 313.499 188.026 313.294 187.382 313.294C186.719 313.294 186.192 313.509 185.8 313.938C185.408 314.358 185.212 314.969 185.212 315.772V320H183.952V315.66C183.952 314.895 183.761 314.311 183.378 313.91C183.005 313.499 182.496 313.294 181.852 313.294C181.189 313.294 180.662 313.509 180.27 313.938C179.878 314.358 179.682 314.969 179.682 315.772V320H178.408V312.328H179.682V313.434C179.934 313.033 180.27 312.725 180.69 312.51C181.119 312.295 181.591 312.188 182.104 312.188C182.748 312.188 183.317 312.333 183.812 312.622C184.307 312.911 184.675 313.336 184.918 313.896C185.133 313.355 185.487 312.935 185.982 312.636C186.477 312.337 187.027 312.188 187.634 312.188ZM202.058 312.188C202.655 312.188 203.187 312.314 203.654 312.566C204.121 312.809 204.489 313.177 204.76 313.672C205.031 314.167 205.166 314.769 205.166 315.478V320H203.906V315.66C203.906 314.895 203.715 314.311 203.332 313.91C202.959 313.499 202.45 313.294 201.806 313.294C201.143 313.294 200.616 313.509 200.224 313.938C199.832 314.358 199.636 314.969 199.636 315.772V320H198.376V315.66C198.376 314.895 198.185 314.311 197.802 313.91C197.429 313.499 196.92 313.294 196.276 313.294C195.613 313.294 195.086 313.509 194.694 313.938C194.302 314.358 194.106 314.969 194.106 315.772V320H192.832V312.328H194.106V313.434C194.358 313.033 194.694 312.725 195.114 312.51C195.543 312.295 196.015 312.188 196.528 312.188C197.172 312.188 197.741 312.333 198.236 312.622C198.731 312.911 199.099 313.336 199.342 313.896C199.557 313.355 199.911 312.935 200.406 312.636C200.901 312.337 201.451 312.188 202.058 312.188ZM207.914 311.082C207.671 311.082 207.466 310.998 207.298 310.83C207.13 310.662 207.046 310.457 207.046 310.214C207.046 309.971 207.13 309.766 207.298 309.598C207.466 309.43 207.671 309.346 207.914 309.346C208.147 309.346 208.343 309.43 208.502 309.598C208.67 309.766 208.754 309.971 208.754 310.214C208.754 310.457 208.67 310.662 208.502 310.83C208.343 310.998 208.147 311.082 207.914 311.082ZM208.53 312.328V320H207.256V312.328H208.53ZM214.439 312.188C215.372 312.188 216.128 312.473 216.707 313.042C217.286 313.602 217.575 314.414 217.575 315.478V320H216.315V315.66C216.315 314.895 216.124 314.311 215.741 313.91C215.358 313.499 214.836 313.294 214.173 313.294C213.501 313.294 212.964 313.504 212.563 313.924C212.171 314.344 211.975 314.955 211.975 315.758V320H210.701V312.328H211.975V313.42C212.227 313.028 212.568 312.725 212.997 312.51C213.436 312.295 213.916 312.188 214.439 312.188ZM222.82 312.202C223.483 312.202 224.061 312.347 224.556 312.636C225.06 312.925 225.433 313.289 225.676 313.728V312.328H226.964V320.168C226.964 320.868 226.815 321.489 226.516 322.03C226.217 322.581 225.788 323.01 225.228 323.318C224.677 323.626 224.033 323.78 223.296 323.78C222.288 323.78 221.448 323.542 220.776 323.066C220.104 322.59 219.707 321.941 219.586 321.12H220.846C220.986 321.587 221.275 321.96 221.714 322.24C222.153 322.529 222.68 322.674 223.296 322.674C223.996 322.674 224.565 322.455 225.004 322.016C225.452 321.577 225.676 320.961 225.676 320.168V318.558C225.424 319.006 225.051 319.379 224.556 319.678C224.061 319.977 223.483 320.126 222.82 320.126C222.139 320.126 221.518 319.958 220.958 319.622C220.407 319.286 219.973 318.815 219.656 318.208C219.339 317.601 219.18 316.911 219.18 316.136C219.18 315.352 219.339 314.666 219.656 314.078C219.973 313.481 220.407 313.019 220.958 312.692C221.518 312.365 222.139 312.202 222.82 312.202ZM225.676 316.15C225.676 315.571 225.559 315.067 225.326 314.638C225.093 314.209 224.775 313.882 224.374 313.658C223.982 313.425 223.548 313.308 223.072 313.308C222.596 313.308 222.162 313.42 221.77 313.644C221.378 313.868 221.065 314.195 220.832 314.624C220.599 315.053 220.482 315.557 220.482 316.136C220.482 316.724 220.599 317.237 220.832 317.676C221.065 318.105 221.378 318.437 221.77 318.67C222.162 318.894 222.596 319.006 223.072 319.006C223.548 319.006 223.982 318.894 224.374 318.67C224.775 318.437 225.093 318.105 225.326 317.676C225.559 317.237 225.676 316.729 225.676 316.15ZM233.507 311.082C233.265 311.082 233.059 310.998 232.891 310.83C232.723 310.662 232.639 310.457 232.639 310.214C232.639 309.971 232.723 309.766 232.891 309.598C233.059 309.43 233.265 309.346 233.507 309.346C233.741 309.346 233.937 309.43 234.095 309.598C234.263 309.766 234.347 309.971 234.347 310.214C234.347 310.457 234.263 310.662 234.095 310.83C233.937 310.998 233.741 311.082 233.507 311.082ZM234.123 312.328V320H232.849V312.328H234.123ZM240.033 312.188C240.966 312.188 241.722 312.473 242.301 313.042C242.879 313.602 243.169 314.414 243.169 315.478V320H241.909V315.66C241.909 314.895 241.717 314.311 241.335 313.91C240.952 313.499 240.429 313.294 239.767 313.294C239.095 313.294 238.558 313.504 238.157 313.924C237.765 314.344 237.569 314.955 237.569 315.758V320H236.295V312.328H237.569V313.42C237.821 313.028 238.161 312.725 238.591 312.51C239.029 312.295 239.51 312.188 240.033 312.188ZM246.804 313.378V317.9C246.804 318.273 246.883 318.539 247.042 318.698C247.201 318.847 247.476 318.922 247.868 318.922H248.806V320H247.658C246.949 320 246.417 319.837 246.062 319.51C245.707 319.183 245.53 318.647 245.53 317.9V313.378H244.536V312.328H245.53V310.396H246.804V312.328H248.806V313.378H246.804ZM257.349 315.87C257.349 316.113 257.335 316.369 257.307 316.64H251.175C251.222 317.396 251.479 317.989 251.945 318.418C252.421 318.838 252.995 319.048 253.667 319.048C254.218 319.048 254.675 318.922 255.039 318.67C255.413 318.409 255.674 318.063 255.823 317.634H257.195C256.99 318.371 256.579 318.973 255.963 319.44C255.347 319.897 254.582 320.126 253.667 320.126C252.939 320.126 252.286 319.963 251.707 319.636C251.138 319.309 250.69 318.847 250.363 318.25C250.037 317.643 249.873 316.943 249.873 316.15C249.873 315.357 250.032 314.661 250.349 314.064C250.667 313.467 251.11 313.009 251.679 312.692C252.258 312.365 252.921 312.202 253.667 312.202C254.395 312.202 255.039 312.361 255.599 312.678C256.159 312.995 256.589 313.434 256.887 313.994C257.195 314.545 257.349 315.17 257.349 315.87ZM256.033 315.604C256.033 315.119 255.926 314.703 255.711 314.358C255.497 314.003 255.203 313.737 254.829 313.56C254.465 313.373 254.059 313.28 253.611 313.28C252.967 313.28 252.417 313.485 251.959 313.896C251.511 314.307 251.255 314.876 251.189 315.604H256.033ZM260.305 313.574C260.529 313.135 260.846 312.795 261.257 312.552C261.677 312.309 262.186 312.188 262.783 312.188V313.504H262.447C261.019 313.504 260.305 314.279 260.305 315.828V320H259.031V312.328H260.305V313.574ZM267.376 313.378H265.766V320H264.492V313.378H263.498V312.328H264.492V311.782C264.492 310.923 264.711 310.298 265.15 309.906C265.598 309.505 266.312 309.304 267.292 309.304V310.368C266.732 310.368 266.335 310.48 266.102 310.704C265.878 310.919 265.766 311.278 265.766 311.782V312.328H267.376V313.378ZM268.385 316.136C268.385 315.352 268.544 314.666 268.861 314.078C269.179 313.481 269.613 313.019 270.163 312.692C270.723 312.365 271.344 312.202 272.025 312.202C272.697 312.202 273.281 312.347 273.775 312.636C274.27 312.925 274.639 313.289 274.881 313.728V312.328H276.169V320H274.881V318.572C274.629 319.02 274.251 319.393 273.747 319.692C273.253 319.981 272.674 320.126 272.011 320.126C271.33 320.126 270.714 319.958 270.163 319.622C269.613 319.286 269.179 318.815 268.861 318.208C268.544 317.601 268.385 316.911 268.385 316.136ZM274.881 316.15C274.881 315.571 274.765 315.067 274.531 314.638C274.298 314.209 273.981 313.882 273.579 313.658C273.187 313.425 272.753 313.308 272.277 313.308C271.801 313.308 271.367 313.42 270.975 313.644C270.583 313.868 270.271 314.195 270.037 314.624C269.804 315.053 269.687 315.557 269.687 316.136C269.687 316.724 269.804 317.237 270.037 317.676C270.271 318.105 270.583 318.437 270.975 318.67C271.367 318.894 271.801 319.006 272.277 319.006C272.753 319.006 273.187 318.894 273.579 318.67C273.981 318.437 274.298 318.105 274.531 317.676C274.765 317.237 274.881 316.729 274.881 316.15ZM277.846 316.15C277.846 315.357 278.005 314.666 278.322 314.078C278.639 313.481 279.078 313.019 279.638 312.692C280.207 312.365 280.856 312.202 281.584 312.202C282.527 312.202 283.301 312.431 283.908 312.888C284.524 313.345 284.93 313.98 285.126 314.792H283.754C283.623 314.325 283.367 313.957 282.984 313.686C282.611 313.415 282.144 313.28 281.584 313.28C280.856 313.28 280.268 313.532 279.82 314.036C279.372 314.531 279.148 315.235 279.148 316.15C279.148 317.074 279.372 317.788 279.82 318.292C280.268 318.796 280.856 319.048 281.584 319.048C282.144 319.048 282.611 318.917 282.984 318.656C283.357 318.395 283.614 318.021 283.754 317.536H285.126C284.921 318.32 284.51 318.95 283.894 319.426C283.278 319.893 282.508 320.126 281.584 320.126C280.856 320.126 280.207 319.963 279.638 319.636C279.078 319.309 278.639 318.847 278.322 318.25C278.005 317.653 277.846 316.953 277.846 316.15ZM293.826 315.87C293.826 316.113 293.812 316.369 293.784 316.64H287.652C287.699 317.396 287.955 317.989 288.422 318.418C288.898 318.838 289.472 319.048 290.144 319.048C290.695 319.048 291.152 318.922 291.516 318.67C291.889 318.409 292.151 318.063 292.3 317.634H293.672C293.467 318.371 293.056 318.973 292.44 319.44C291.824 319.897 291.059 320.126 290.144 320.126C289.416 320.126 288.763 319.963 288.184 319.636C287.615 319.309 287.167 318.847 286.84 318.25C286.513 317.643 286.35 316.943 286.35 316.15C286.35 315.357 286.509 314.661 286.826 314.064C287.143 313.467 287.587 313.009 288.156 312.692C288.735 312.365 289.397 312.202 290.144 312.202C290.872 312.202 291.516 312.361 292.076 312.678C292.636 312.995 293.065 313.434 293.364 313.994C293.672 314.545 293.826 315.17 293.826 315.87ZM292.51 315.604C292.51 315.119 292.403 314.703 292.188 314.358C291.973 314.003 291.679 313.737 291.306 313.56C290.942 313.373 290.536 313.28 290.088 313.28C289.444 313.28 288.893 313.485 288.436 313.896C287.988 314.307 287.731 314.876 287.666 315.604H292.51ZM302.516 322.604C301.62 321.727 300.92 320.611 300.416 319.258C299.921 317.905 299.674 316.444 299.674 314.876C299.674 313.271 299.935 311.773 300.458 310.382C300.99 308.982 301.746 307.829 302.726 306.924H304.056V307.05C303.011 308.03 302.222 309.211 301.69 310.592C301.167 311.964 300.906 313.392 300.906 314.876C300.906 316.323 301.153 317.704 301.648 319.02C302.152 320.336 302.885 321.489 303.846 322.478V322.604H302.516ZM311.366 317.83H307.11L306.326 320H304.982L308.51 310.298H309.98L313.494 320H312.15L311.366 317.83ZM311.002 316.794L309.238 311.866L307.474 316.794H311.002ZM321.555 313.098C321.555 313.91 321.275 314.587 320.715 315.128C320.164 315.66 319.32 315.926 318.181 315.926H316.305V320H315.031V310.242H318.181C319.282 310.242 320.118 310.508 320.687 311.04C321.266 311.572 321.555 312.258 321.555 313.098ZM318.181 314.876C318.89 314.876 319.413 314.722 319.749 314.414C320.085 314.106 320.253 313.667 320.253 313.098C320.253 311.894 319.562 311.292 318.181 311.292H316.305V314.876H318.181ZM324.413 310.242V320H323.139V310.242H324.413ZM326.178 322.604V322.478C327.139 321.489 327.867 320.336 328.362 319.02C328.866 317.704 329.118 316.323 329.118 314.876C329.118 313.392 328.852 311.964 328.32 310.592C327.797 309.211 327.013 308.03 325.968 307.05V306.924H327.298C328.278 307.829 329.029 308.982 329.552 310.382C330.084 311.773 330.35 313.271 330.35 314.876C330.35 316.444 330.098 317.905 329.594 319.258C329.099 320.611 328.404 321.727 327.508 322.604H326.178ZM333.347 320.084C333.105 320.084 332.899 320 332.731 319.832C332.563 319.664 332.479 319.459 332.479 319.216C332.479 318.973 332.563 318.768 332.731 318.6C332.899 318.432 333.105 318.348 333.347 318.348C333.581 318.348 333.777 318.432 333.935 318.6C334.103 318.768 334.187 318.973 334.187 319.216C334.187 319.459 334.103 319.664 333.935 319.832C333.777 320 333.581 320.084 333.347 320.084ZM336.287 320.084C336.044 320.084 335.839 320 335.671 319.832C335.503 319.664 335.419 319.459 335.419 319.216C335.419 318.973 335.503 318.768 335.671 318.6C335.839 318.432 336.044 318.348 336.287 318.348C336.52 318.348 336.716 318.432 336.875 318.6C337.043 318.768 337.127 318.973 337.127 319.216C337.127 319.459 337.043 319.664 336.875 319.832C336.716 320 336.52 320.084 336.287 320.084ZM339.226 320.084C338.984 320.084 338.778 320 338.61 319.832C338.442 319.664 338.358 319.459 338.358 319.216C338.358 318.973 338.442 318.768 338.61 318.6C338.778 318.432 338.984 318.348 339.226 318.348C339.46 318.348 339.656 318.432 339.814 318.6C339.982 318.768 340.066 318.973 340.066 319.216C340.066 319.459 339.982 319.664 339.814 319.832C339.656 320 339.46 320.084 339.226 320.084Z" fill="#686F80"/>
<path d="M24 394L346 394" stroke="#E5E7E7"/>
<circle cx="42" cy="428" r="19" fill="#FFEECE" stroke="white" stroke-width="2"/>
<circle cx="68" cy="428" r="19" fill="#E9FFCE" stroke="white" stroke-width="2"/>
<circle cx="94" cy="428" r="19" fill="#CEFFFC" stroke="white" stroke-width="2"/>
<circle cx="120" cy="428" r="19" fill="#CEE2FF" stroke="white" stroke-width="2"/>
<circle cx="146" cy="428" r="19" fill="#EEF0F4" stroke="white" stroke-width="2"/>
<path d="M145.531 429.118H142.703V432.016H141.219V429.118H138.391V427.774H141.219V424.876H142.703V427.774H145.531V429.118ZM148.679 431.33C149.575 430.555 150.28 429.921 150.793 429.426C151.316 428.922 151.75 428.399 152.095 427.858C152.44 427.317 152.613 426.775 152.613 426.234C152.613 425.674 152.478 425.235 152.207 424.918C151.946 424.601 151.53 424.442 150.961 424.442C150.41 424.442 149.981 424.619 149.673 424.974C149.374 425.319 149.216 425.786 149.197 426.374H147.657C147.685 425.31 148.002 424.498 148.609 423.938C149.225 423.369 150.004 423.084 150.947 423.084C151.964 423.084 152.758 423.364 153.327 423.924C153.906 424.484 154.195 425.231 154.195 426.164C154.195 426.836 154.022 427.485 153.677 428.11C153.341 428.726 152.935 429.281 152.459 429.776C151.992 430.261 151.395 430.826 150.667 431.47L150.037 432.03H154.475V433.36H147.671V432.198L148.679 431.33Z" fill="#474D54"/>
<rect x="251" y="414" width="95" height="27" rx="13.5" fill="#EFF0DE"/>
<path d="M261.646 422.27V432H260.05V422.27H261.646ZM267.633 424.16C268.24 424.16 268.781 424.286 269.257 424.538C269.743 424.79 270.121 425.163 270.391 425.658C270.662 426.153 270.797 426.75 270.797 427.45V432H269.215V427.688C269.215 426.997 269.043 426.47 268.697 426.106C268.352 425.733 267.881 425.546 267.283 425.546C266.686 425.546 266.21 425.733 265.855 426.106C265.51 426.47 265.337 426.997 265.337 427.688V432H263.741V424.286H265.337V425.168C265.599 424.851 265.93 424.603 266.331 424.426C266.742 424.249 267.176 424.16 267.633 424.16ZM278.066 425.42C278.337 425.065 278.705 424.767 279.172 424.524C279.639 424.281 280.166 424.16 280.754 424.16C281.426 424.16 282.037 424.328 282.588 424.664C283.148 424.991 283.587 425.453 283.904 426.05C284.221 426.647 284.38 427.333 284.38 428.108C284.38 428.883 284.221 429.578 283.904 430.194C283.587 430.801 283.148 431.277 282.588 431.622C282.037 431.958 281.426 432.126 280.754 432.126C280.166 432.126 279.643 432.009 279.186 431.776C278.729 431.533 278.355 431.235 278.066 430.88V435.668H276.47V424.286H278.066V425.42ZM282.756 428.108C282.756 427.576 282.644 427.119 282.42 426.736C282.205 426.344 281.916 426.05 281.552 425.854C281.197 425.649 280.815 425.546 280.404 425.546C280.003 425.546 279.62 425.649 279.256 425.854C278.901 426.059 278.612 426.358 278.388 426.75C278.173 427.142 278.066 427.604 278.066 428.136C278.066 428.668 278.173 429.135 278.388 429.536C278.612 429.928 278.901 430.227 279.256 430.432C279.62 430.637 280.003 430.74 280.404 430.74C280.815 430.74 281.197 430.637 281.552 430.432C281.916 430.217 282.205 429.909 282.42 429.508C282.644 429.107 282.756 428.64 282.756 428.108ZM287.554 425.406C287.788 425.014 288.096 424.711 288.478 424.496C288.87 424.272 289.332 424.16 289.864 424.16V425.812H289.458C288.833 425.812 288.357 425.971 288.03 426.288C287.713 426.605 287.554 427.156 287.554 427.94V432H285.958V424.286H287.554V425.406ZM294.677 432.126C293.949 432.126 293.291 431.963 292.703 431.636C292.115 431.3 291.653 430.833 291.317 430.236C290.981 429.629 290.813 428.929 290.813 428.136C290.813 427.352 290.986 426.657 291.331 426.05C291.677 425.443 292.148 424.977 292.745 424.65C293.343 424.323 294.01 424.16 294.747 424.16C295.485 424.16 296.152 424.323 296.749 424.65C297.347 424.977 297.818 425.443 298.163 426.05C298.509 426.657 298.681 427.352 298.681 428.136C298.681 428.92 298.504 429.615 298.149 430.222C297.795 430.829 297.309 431.3 296.693 431.636C296.087 431.963 295.415 432.126 294.677 432.126ZM294.677 430.74C295.088 430.74 295.471 430.642 295.825 430.446C296.189 430.25 296.483 429.956 296.707 429.564C296.931 429.172 297.043 428.696 297.043 428.136C297.043 427.576 296.936 427.105 296.721 426.722C296.507 426.33 296.222 426.036 295.867 425.84C295.513 425.644 295.13 425.546 294.719 425.546C294.309 425.546 293.926 425.644 293.571 425.84C293.226 426.036 292.951 426.33 292.745 426.722C292.54 427.105 292.437 427.576 292.437 428.136C292.437 428.967 292.647 429.611 293.067 430.068C293.497 430.516 294.033 430.74 294.677 430.74ZM303.367 424.16C303.964 424.16 304.492 424.281 304.949 424.524C305.416 424.757 305.78 425.051 306.041 425.406V424.286H307.651V432.126C307.651 432.835 307.502 433.465 307.203 434.016C306.904 434.576 306.47 435.015 305.901 435.332C305.341 435.649 304.669 435.808 303.885 435.808C302.84 435.808 301.972 435.561 301.281 435.066C300.59 434.581 300.198 433.918 300.105 433.078H301.687C301.808 433.479 302.065 433.801 302.457 434.044C302.858 434.296 303.334 434.422 303.885 434.422C304.529 434.422 305.047 434.226 305.439 433.834C305.84 433.442 306.041 432.873 306.041 432.126V430.838C305.77 431.202 305.402 431.51 304.935 431.762C304.478 432.005 303.955 432.126 303.367 432.126C302.695 432.126 302.079 431.958 301.519 431.622C300.968 431.277 300.53 430.801 300.203 430.194C299.886 429.578 299.727 428.883 299.727 428.108C299.727 427.333 299.886 426.647 300.203 426.05C300.53 425.453 300.968 424.991 301.519 424.664C302.079 424.328 302.695 424.16 303.367 424.16ZM306.041 428.136C306.041 427.604 305.929 427.142 305.705 426.75C305.49 426.358 305.206 426.059 304.851 425.854C304.496 425.649 304.114 425.546 303.703 425.546C303.292 425.546 302.91 425.649 302.555 425.854C302.2 426.05 301.911 426.344 301.687 426.736C301.472 427.119 301.365 427.576 301.365 428.108C301.365 428.64 301.472 429.107 301.687 429.508C301.911 429.909 302.2 430.217 302.555 430.432C302.919 430.637 303.302 430.74 303.703 430.74C304.114 430.74 304.496 430.637 304.851 430.432C305.206 430.227 305.49 429.928 305.705 429.536C305.929 429.135 306.041 428.668 306.041 428.136ZM311.343 425.406C311.577 425.014 311.885 424.711 312.267 424.496C312.659 424.272 313.121 424.16 313.653 424.16V425.812H313.247C312.622 425.812 312.146 425.971 311.819 426.288C311.502 426.605 311.343 427.156 311.343 427.94V432H309.747V424.286H311.343V425.406ZM322.19 427.954C322.19 428.243 322.172 428.505 322.134 428.738H316.24C316.287 429.354 316.516 429.849 316.926 430.222C317.337 430.595 317.841 430.782 318.438 430.782C319.297 430.782 319.904 430.423 320.258 429.704H321.98C321.747 430.413 321.322 430.997 320.706 431.454C320.1 431.902 319.344 432.126 318.438 432.126C317.701 432.126 317.038 431.963 316.45 431.636C315.872 431.3 315.414 430.833 315.078 430.236C314.752 429.629 314.588 428.929 314.588 428.136C314.588 427.343 314.747 426.647 315.064 426.05C315.391 425.443 315.844 424.977 316.422 424.65C317.01 424.323 317.682 424.16 318.438 424.16C319.166 424.16 319.815 424.319 320.384 424.636C320.954 424.953 321.397 425.401 321.714 425.98C322.032 426.549 322.19 427.207 322.19 427.954ZM320.524 427.45C320.515 426.862 320.305 426.391 319.894 426.036C319.484 425.681 318.975 425.504 318.368 425.504C317.818 425.504 317.346 425.681 316.954 426.036C316.562 426.381 316.329 426.853 316.254 427.45H320.524ZM326.561 432.126C325.954 432.126 325.408 432.019 324.923 431.804C324.447 431.58 324.069 431.281 323.789 430.908C323.509 430.525 323.36 430.101 323.341 429.634H324.993C325.021 429.961 325.175 430.236 325.455 430.46C325.744 430.675 326.104 430.782 326.533 430.782C326.981 430.782 327.326 430.698 327.569 430.53C327.821 430.353 327.947 430.129 327.947 429.858C327.947 429.569 327.807 429.354 327.527 429.214C327.256 429.074 326.822 428.92 326.225 428.752C325.646 428.593 325.175 428.439 324.811 428.29C324.447 428.141 324.13 427.912 323.859 427.604C323.598 427.296 323.467 426.89 323.467 426.386C323.467 425.975 323.588 425.602 323.831 425.266C324.074 424.921 324.419 424.65 324.867 424.454C325.324 424.258 325.847 424.16 326.435 424.16C327.312 424.16 328.017 424.384 328.549 424.832C329.09 425.271 329.38 425.873 329.417 426.638H327.821C327.793 426.293 327.653 426.017 327.401 425.812C327.149 425.607 326.808 425.504 326.379 425.504C325.959 425.504 325.637 425.583 325.413 425.742C325.189 425.901 325.077 426.111 325.077 426.372C325.077 426.577 325.152 426.75 325.301 426.89C325.45 427.03 325.632 427.142 325.847 427.226C326.062 427.301 326.379 427.399 326.799 427.52C327.359 427.669 327.816 427.823 328.171 427.982C328.535 428.131 328.848 428.355 329.109 428.654C329.37 428.953 329.506 429.349 329.515 429.844C329.515 430.283 329.394 430.675 329.151 431.02C328.908 431.365 328.563 431.636 328.115 431.832C327.676 432.028 327.158 432.126 326.561 432.126ZM334.039 432.126C333.433 432.126 332.887 432.019 332.401 431.804C331.925 431.58 331.547 431.281 331.267 430.908C330.987 430.525 330.838 430.101 330.819 429.634H332.471C332.499 429.961 332.653 430.236 332.933 430.46C333.223 430.675 333.582 430.782 334.011 430.782C334.459 430.782 334.805 430.698 335.047 430.53C335.299 430.353 335.425 430.129 335.425 429.858C335.425 429.569 335.285 429.354 335.005 429.214C334.735 429.074 334.301 428.92 333.703 428.752C333.125 428.593 332.653 428.439 332.289 428.29C331.925 428.141 331.608 427.912 331.337 427.604C331.076 427.296 330.945 426.89 330.945 426.386C330.945 425.975 331.067 425.602 331.309 425.266C331.552 424.921 331.897 424.65 332.345 424.454C332.803 424.258 333.325 424.16 333.913 424.16C334.791 424.16 335.495 424.384 336.027 424.832C336.569 425.271 336.858 425.873 336.895 426.638H335.299C335.271 426.293 335.131 426.017 334.879 425.812C334.627 425.607 334.287 425.504 333.857 425.504C333.437 425.504 333.115 425.583 332.891 425.742C332.667 425.901 332.555 426.111 332.555 426.372C332.555 426.577 332.63 426.75 332.779 426.89C332.929 427.03 333.111 427.142 333.325 427.226C333.54 427.301 333.857 427.399 334.277 427.52C334.837 427.669 335.295 427.823 335.649 427.982C336.013 428.131 336.326 428.355 336.587 428.654C336.849 428.953 336.984 429.349 336.993 429.844C336.993 430.283 336.872 430.675 336.629 431.02C336.387 431.365 336.041 431.636 335.593 431.832C335.155 432.028 334.637 432.126 334.039 432.126Z" fill="#717711"/>
<rect x="48" y="131" width="298" height="140" rx="16" fill="#B4B4B4"/>
<rect x="48" y="123" width="290" height="156" rx="16" fill="#C4C4C4"/>
<rect x="28" y="115" width="302" height="172" rx="16" fill="#EAEAEA"/>
</svg>
