<?xml version="1.0" encoding="UTF-8"?>
<svg id="Layer_2" data-name="Layer 2" xmlns="http://www.w3.org/2000/svg" viewBox="0 0 244.57 56.07">
  <defs>
    <style>
      .cls-1 {
        fill-rule: evenodd;
      }

      .cls-1, .cls-2, .cls-3, .cls-4 {
        stroke-width: 0px;
      }

      .cls-1, .cls-3 {
        fill: #177dc2;
      }

      .cls-2 {
        fill: #1d5baa;
      }

      .cls-4 {
        fill: #FFF;
      }
    </style>
  </defs>
  <g id="Layer_1-2" data-name="Layer 1">
    <path class="cls-1" d="M5.41,45.51c2.92,0,5.28,2.36,5.28,5.28s-2.36,5.28-5.28,5.28S.13,53.71.13,50.79s2.36-5.28,5.28-5.28"/>
    <path class="cls-3" d="M31.39,14.26c2.52,1.46,3.38,4.69,1.92,7.22s-4.69,3.38-7.22,1.92L2.63,9.85C.11,8.39-.75,5.16.71,2.63,2.17.11,5.4-.75,7.93.71l23.46,13.54Z"/>
    <path class="cls-3" d="M31.39,23.4c2.52-1.46,3.38-4.69,1.92-7.22s-4.69-3.38-7.22-1.92L2.63,27.8c-2.52,1.46-3.38,4.69-1.92,7.22,1.46,2.52,4.69,3.38,7.22,1.92l23.46-13.54Z"/>
    <path class="cls-2" d="M31.39,14.26h0l.12.07.1.06h.01s.09.07.09.07h.02s.11.09.11.09l.08.06.03.02.08.06.03.02.07.06h0s.18.16.18.16h.01s.03.04.03.04l.06.06h0c.34.33.65.72.9,1.15.07.12.13.24.19.36l.04.09v.03s.05.09.05.09v.04s.05.08.05.08h0c.22.55.34,1.13.37,1.72h0s0,.09,0,.09v.13s0,.04,0,.04v.09s0,.04,0,.04v.09s0,0,0,0c-.03.59-.15,1.17-.37,1.71h0s-.03.09-.03.09v.04s-.05.09-.05.09v.03s-.06.09-.06.09c-.06.12-.12.24-.19.36-.25.43-.55.82-.9,1.15h0s-.06.06-.06.06l-.03.03h-.01s-.18.17-.18.17h0s-.07.06-.07.06l-.03.02-.08.06-.03.02-.08.06-.11.08h-.02s-.09.08-.09.08h-.01s-.1.07-.1.07l-.12.07h-.02c-1.58.92-3.58.98-5.27,0l-7.91-4.57,7.91-4.57c1.69-.98,3.69-.92,5.27-.01h.02Z"/>
    <path class="cls-4" d="M234.49,42.41c-2.32,0-4.43-.53-6.34-1.58-1.9-1.05-3.21-2.43-3.93-4.13-.12-.29-.18-.53-.18-.72,0-.36.13-.68.39-.95.26-.28.62-.46,1.08-.56.07-.02.19-.04.36-.04.38,0,.75.11,1.09.34.35.23.61.53.77.92.43.93,1.28,1.72,2.55,2.37,1.27.65,2.67.97,4.2.97,1.79,0,3.31-.41,4.56-1.24,1.24-.83,1.87-1.96,1.87-3.39s-.53-2.53-1.58-3.5c-1.05-.97-2.66-1.56-4.81-1.78-2.97-.29-5.3-1.15-7-2.6-1.7-1.45-2.55-3.26-2.55-5.44,0-1.53.44-2.85,1.31-3.97.87-1.11,2.07-1.96,3.59-2.55,1.52-.59,3.22-.88,5.11-.88,2.06,0,3.79.42,5.2,1.26,1.41.84,2.61,2.03,3.59,3.59.29.45.43.89.43,1.29,0,.53-.24.96-.72,1.29-.26.17-.57.25-.93.25s-.69-.09-1.01-.27c-.31-.18-.55-.42-.72-.74-.65-1.08-1.45-1.9-2.42-2.46-.97-.56-2.2-.84-3.68-.84-1.82,0-3.29.35-4.42,1.06-1.12.71-1.69,1.73-1.69,3.07,0,1.24.5,2.29,1.51,3.12,1.01.84,2.8,1.39,5.38,1.65,2.87.29,5.1,1.15,6.68,2.6,1.58,1.45,2.37,3.36,2.37,5.73,0,1.72-.47,3.2-1.4,4.43-.93,1.23-2.17,2.15-3.72,2.76-1.54.61-3.2.92-4.97.92M211.22,27.8c1.63,0,2.97-.46,4.02-1.38,1.05-.92,1.58-2.11,1.58-3.57,0-1.58-.53-2.87-1.58-3.88-1.05-1.01-2.39-1.51-4.02-1.51h-4.59v10.34h4.59ZM221.1,39.18c.24.38.36.78.36,1.18,0,.48-.16.88-.48,1.2-.32.32-.76.48-1.31.48-.69,0-1.23-.3-1.61-.9l-6.17-9.91h-5.24v8.94c0,.53-.17.97-.52,1.33-.35.36-.8.54-1.35.54s-.97-.18-1.33-.54c-.36-.36-.54-.8-.54-1.33V15.88c0-.55.18-1,.54-1.35.36-.35.8-.52,1.33-.52h6.46c1.77,0,3.36.37,4.76,1.11,1.4.74,2.49,1.78,3.27,3.12.78,1.34,1.17,2.87,1.17,4.59s-.43,3.21-1.29,4.52c-.86,1.32-2.03,2.31-3.52,2.98l5.49,8.83ZM179.64,42.05c-.53,0-.97-.18-1.33-.54-.36-.36-.54-.8-.54-1.33V15.88c0-.55.18-1,.54-1.35.36-.35.8-.52,1.33-.52h16.22c.55,0,.99.16,1.33.48.33.32.5.75.5,1.27s-.17.91-.5,1.22c-.34.31-.78.47-1.33.47h-14.36v8.72h10.3c.53,0,.96.16,1.31.48.35.32.52.74.52,1.24s-.17.92-.52,1.24c-.35.32-.78.48-1.31.48h-10.3v8.97h14.36c.55,0,.99.16,1.33.47.33.31.5.72.5,1.22s-.17.95-.5,1.27c-.34.32-.78.48-1.33.48h-16.22ZM154.51,42.05c-.53,0-.97-.18-1.33-.54-.36-.36-.54-.8-.54-1.33V15.88c0-.55.18-1,.54-1.35.36-.35.8-.52,1.33-.52h16.22c.55,0,.99.16,1.33.48.33.32.5.75.5,1.27s-.17.91-.5,1.22c-.33.31-.78.47-1.33.47h-14.36v8.72h10.3c.53,0,.96.16,1.31.48.35.32.52.74.52,1.24s-.17.92-.52,1.24c-.35.32-.78.48-1.31.48h-10.3v8.97h14.36c.55,0,.99.16,1.33.47.33.31.5.72.5,1.22s-.17.95-.5,1.27c-.33.32-.78.48-1.33.48h-16.22ZM124.68,42.05c-.53,0-.96-.17-1.31-.52-.35-.35-.52-.8-.52-1.35V15.88c0-.55.17-1,.52-1.35.35-.35.78-.52,1.31-.52.26,0,.53.07.79.2.26.13.48.29.65.48l15.65,20.82V15.88c0-.55.18-1,.54-1.35.36-.35.8-.52,1.33-.52s.96.17,1.31.52c.35.35.52.8.52,1.35v24.3c0,.55-.17,1-.52,1.35-.35.35-.78.52-1.31.52-.26,0-.53-.05-.81-.16-.27-.11-.48-.27-.63-.48l-15.65-20.82v19.6c0,.53-.17.97-.52,1.33-.35.36-.8.54-1.34.54ZM102.75,39.04c2.03,0,3.86-.48,5.49-1.45,1.63-.97,2.9-2.29,3.81-3.97.91-1.67,1.36-3.54,1.36-5.6s-.45-3.92-1.36-5.6c-.91-1.67-2.17-2.99-3.79-3.95-1.61-.96-3.45-1.44-5.51-1.44s-3.9.48-5.51,1.44c-1.61.96-2.88,2.27-3.79,3.95-.91,1.68-1.36,3.54-1.36,5.6s.45,3.92,1.36,5.6c.91,1.68,2.18,3,3.81,3.97,1.63.97,3.46,1.45,5.49,1.45ZM102.75,42.41c-2.78,0-5.25-.61-7.41-1.83-2.17-1.22-3.85-2.93-5.04-5.12-1.2-2.19-1.8-4.67-1.8-7.45s.6-5.25,1.8-7.43c1.2-2.18,2.88-3.88,5.04-5.1,2.17-1.22,4.64-1.83,7.41-1.83s5.21.61,7.38,1.83c2.17,1.22,3.85,2.92,5.06,5.1,1.21,2.18,1.81,4.65,1.81,7.43s-.6,5.26-1.81,7.45c-1.21,2.19-2.89,3.89-5.04,5.12-2.15,1.22-4.62,1.83-7.39,1.83ZM80.74,42.05c-.53,0-.97-.18-1.33-.54-.36-.36-.54-.8-.54-1.33V15.88c0-.55.18-1,.54-1.35.36-.35.8-.52,1.33-.52s1,.17,1.35.52c.35.35.52.8.52,1.35v24.3c0,.53-.17.97-.52,1.33-.35.36-.8.54-1.35.54ZM65.56,28.88c1.63,0,2.97-.52,4.02-1.56,1.05-1.04,1.58-2.37,1.58-4s-.53-3.1-1.58-4.2c-1.05-1.1-2.39-1.65-4.02-1.65h-5.31v11.41h5.31ZM58.38,42.05c-.53,0-.97-.18-1.33-.54-.36-.36-.54-.8-.54-1.33V15.88c0-.55.18-1,.54-1.35.36-.35.8-.52,1.33-.52h7.18c1.77,0,3.36.39,4.76,1.18,1.4.79,2.49,1.89,3.27,3.3.78,1.41,1.17,3.02,1.17,4.81s-.39,3.3-1.17,4.67c-.78,1.36-1.87,2.43-3.27,3.19-1.4.77-2.99,1.15-4.76,1.15h-5.31v7.86c0,.53-.17.97-.52,1.33-.35.36-.79.54-1.35.54Z"/>
  </g>
</svg>