<?xml version="1.0" encoding="UTF-8"?>
<svg id="Layer_2" data-name="Layer 2" xmlns="http://www.w3.org/2000/svg" viewBox="0 0 902.54 652.81">
  <defs>
    <style>
      .cls-1 {
        fill: #5100b2;
      }

      .cls-1, .cls-2 {
        stroke-width: 0px;
      }

      .cls-2 {
        fill: #01dd01;
      }
    </style>
  </defs>
  <g id="Layer_1-2" data-name="Layer 1">
    <path class="cls-1" d="M91.84,494.15l-41.64,41.64c15.31,11.04,79.8,59.37,190.75,59.37,78.51,0,125.16,36.74,145.47,57.65l41.02-41.02c-40.87-41.9-103.06-74.55-186.49-74.55s-137.89-35.61-149.11-43.09h0Z"/>
    <g>
      <path class="cls-2" d="M436.94,69.4c-22.8-22.11-49.69-39.2-80.69-51.28C325.24,6.05,291.52,0,255.05,0s-70.89,6.16-101.88,18.46c-31,12.31-57.9,29.52-80.69,51.63-22.8,22.12-40.58,47.99-53.34,77.61C6.37,177.33,0,209.7,0,244.8s6.38,67.47,19.14,97.1c12.76,29.64,30.54,55.5,53.34,77.61,22.79,22.12,49.8,39.32,81.03,51.63,31.22,12.3,65.07,18.46,101.54,18.46s70.19-6.04,101.2-18.12c31-12.07,57.89-29.17,80.69-51.28,22.79-22.1,40.45-47.97,52.99-77.61,12.53-29.63,18.8-62.23,18.8-97.78s-6.27-67.58-18.8-97.44c-12.54-29.85-30.2-55.83-52.99-77.95v-.02ZM431.14,319.99c-9.61,22.97-22.96,43-40.06,60.1s-37.25,30.34-60.45,39.71c-23.19,9.38-48.62,14.06-76.26,14.06s-52.36-4.68-75.56-14.06c-23.19-9.37-43.47-22.6-60.8-39.71-17.34-17.1-30.82-37.13-40.41-60.1-9.61-22.95-14.41-48.02-14.41-75.21s4.8-52.12,14.41-74.85c9.6-22.72,23.07-42.76,40.41-60.1s37.6-30.69,60.8-40.06,48.38-14.06,75.56-14.06,53.07,4.69,76.26,14.06c23.2,9.38,43.34,22.73,60.45,40.06,17.1,17.34,30.45,37.37,40.06,60.1,9.6,22.73,14.41,47.68,14.41,74.85s-4.81,52.25-14.41,75.21Z"/>
      <path class="cls-2" d="M890.09,292c-8.25-15.65-19.62-28.53-33.8-38.27-14.44-9.91-30.97-18.01-49.12-24.06-18.42-6.14-37.74-11.24-57.4-15.17-26.71-5.78-50.1-12-69.55-18.48-19.96-6.64-35.5-15.44-46.19-26.15-11.1-11.09-16.73-26.35-16.73-45.37,0-6.39-.17-17.56,6.2-29.37,2.63-4.87,7.91-12.75,21-21.23,26.24-17.01,55.11-17.83,74.85-18.16,8.59-.14,34.67-.06,60.81,9.34,14.35,5.16,23.03,11.08,29.61,17.81,4.35,4.46,7.05,8.56,8.89,11.31,6.45,9.67,11.03,20.99,13.64,33.67h61.25c-4.19-36.49-20.09-66.54-47.29-89.33C815.73,12.97,772.82,0,718.71,0,685.77,0,656.48,5.58,631.68,16.58c-24.62,10.92-43.92,26.18-57.34,45.36-13.35,19.08-20.13,41.7-20.13,67.23,0,19.24,3.33,36.28,9.9,50.67,6.52,14.32,16.59,26.84,29.91,37.2,13.54,10.54,30.83,19.83,51.41,27.63,20.81,7.89,45.59,15,73.63,21.12,20.93,4.46,40.37,9.54,57.75,15.11,17.96,5.76,32.72,14.21,43.87,25.13,19.06,18.64,17.48,44.3,17.43,48.4-.07,5.82-.99,23-12.37,39.78-5.83,8.6-12.11,13.7-15.03,16.03-30.89,24.7-80.76,23.86-88.87,23.63-27.38-.75-62.7-1.72-91.06-28.24-17.29-16.17-24.91-35.21-28.39-46.73h-61.23c3.34,20.99,10.4,40.15,20.99,56.97,14.55,23.1,35.52,41.34,62.34,54.22,26.98,12.95,59.8,19.52,97.56,19.52s71.92-5.92,98.72-17.59c26.57-11.58,47.07-27.93,60.92-48.6,13.83-20.65,20.85-45.21,20.85-72.98,0-23.09-4.19-42.74-12.44-58.41v-.03Z"/>
    </g>
  </g>
</svg>