<?xml version="1.0" encoding="UTF-8"?>
<svg id="Layer_2" data-name="Layer 2" xmlns="http://www.w3.org/2000/svg" viewBox="0 0 1537.02 290.66">
  <defs>
    <style>
      .cls-1 {
        fill: #fff;
      }

      .cls-1, .cls-2 {
        stroke-width: 0px;
      }

      .cls-2 {
        fill: #01dd01;
      }
    </style>
  </defs>
  <g id="Layer_1-2" data-name="Layer 1">
    <path class="cls-1" d="M609.32,137.07c0,14.65-2.67,25.57-7.94,32.47-5.2,6.78-13.59,10.23-24.94,10.23s-20.17-3.49-25.62-10.38c-5.53-6.96-8.33-17.85-8.33-32.32V60.01h-28.01v77.06c0,14.47-2.81,25.34-8.33,32.32-5.47,6.89-14.08,10.38-25.62,10.38s-20.01-3.44-25.21-10.23c-5.27-6.89-7.94-17.82-7.94-32.47V60.01h-28.02v78.92c0,20.9,5.25,37.24,15.58,48.56,10.37,11.35,25.7,17.11,45.6,17.11,11.81,0,21.87-2.15,29.88-6.38,7.41-3.91,13.48-9.77,18.07-17.45,9.23,15.81,25.26,23.83,47.7,23.83,19.72,0,35.01-5.76,45.46-17.11,10.43-11.32,15.72-27.66,15.72-48.56V60.01h-28.02v77.06h-.03Z"/>
    <path class="cls-1" d="M1028.63,75.53c-10.46-11.35-25.75-17.1-45.46-17.1-22.44,0-38.48,8.01-47.71,23.82-4.58-7.67-10.65-13.53-18.07-17.45-8.01-4.23-18.05-6.37-29.88-6.37-19.88,0-35.23,5.75-45.6,17.1-10.33,11.32-15.56,27.66-15.56,48.56v78.92h28.01v-76.53c0-14.65,2.68-25.57,7.96-32.47,5.18-6.78,13.67-10.21,25.2-10.21s20.17,3.48,25.62,10.37c5.53,6.98,8.33,17.85,8.33,32.32v76.53h28.01v-76.53c0-14.47,2.81-25.34,8.34-32.32,5.44-6.89,14.07-10.37,25.61-10.37s19.74,3.43,24.94,10.21c5.27,6.9,7.96,17.82,7.96,32.47v76.53h28.01v-78.92c0-20.89-5.29-37.24-15.71-48.56h0Z"/>
    <path class="cls-1" d="M107.28,239.19c-38.19,0-61.39-15.86-66.39-19.18l-18.54,18.54c6.82,4.91,35.53,26.44,84.93,26.44,34.95,0,55.73,16.36,64.77,25.67l18.27-18.27c-18.2-18.65-45.89-33.19-83.03-33.19h0Z"/>
    <path class="cls-1" d="M322.61,58.43c-23.84,0-43.63,7.4-57.25,21.41-12.69,13.07-19.39,30.93-19.39,51.67s7.46,38.8,21.01,52.06c14.06,13.76,33.3,21.01,55.62,21.01,17.04,0,32.72-4.41,45.36-12.76,12.2-8.06,21.37-19.6,26.52-33.37l.65-1.72h-28.85l-.37.6c-8.94,14.16-24.71,22.29-43.31,22.29-3.8,0-27.82-.4-41.1-19.09-5.32-7.49-6.94-15.14-7.52-19.46h124.7l.11-1.13c.29-2.86.44-5.7.44-8.43,0-20.73-6.7-38.6-19.4-51.67-13.6-14.01-33.4-21.41-57.23-21.41h0ZM273.93,119.86c4.39-22.9,22.91-37.04,48.68-37.04s44.29,14.14,48.68,37.04h-97.36Z"/>
    <path class="cls-1" d="M769.55,67.74c-11.15-6.18-23.95-9.31-38.01-9.31-5.4,0-10.73.48-15.82,1.42-8.3,1.39-16.11,4.09-23.16,8.01-10.92,6.1-19.6,14.74-25.79,25.66-6.18,10.92-9.31,23.71-9.31,38s3.13,27.11,9.31,38.12c6.19,11.03,14.87,19.7,25.79,25.8.06.04.13.07.19.11,9.13,5.04,19.47,7.46,29.9,7.46h82.84v-71.63c0-13.97-3.21-26.64-9.56-37.67-6.34-11.04-15.22-19.77-26.38-25.97h0ZM777.44,179.04h-45.57c-8.69,0-16.57-1.61-23.44-5.59-6.88-4-12.38-9.67-16.37-16.89-4-7.24-6.02-15.66-6.02-25.05s2.02-17.82,6.02-25.05c3.98-7.21,9.49-12.85,16.36-16.76,6.88-3.89,14.77-5.88,23.46-5.88s16.36,1.99,23.33,5.89c6.94,3.89,12.44,9.53,16.35,16.73,3.91,7.24,5.89,15.67,5.89,25.06v47.54Z"/>
    <g>
      <polygon class="cls-1" points="1467 6.22 1477.56 6.22 1477.56 33.01 1485.2 33.01 1485.2 6.22 1495.76 6.22 1495.76 0 1467 0 1467 6.22"/>
      <polygon class="cls-1" points="1530.65 0 1518.54 20.49 1506.18 0 1499.86 0 1499.86 33.01 1506.98 33.01 1506.98 13.54 1516.7 29.47 1520.09 29.47 1529.81 13.32 1529.9 33.01 1537.02 33.01 1537.02 0 1530.65 0"/>
    </g>
    <path class="cls-1" d="M113.56,217.98c-16.24,0-31.31-2.74-45.21-8.22s-25.93-13.14-36.08-22.99c-10.15-9.84-18.07-21.36-23.75-34.55S0,124.62,0,108.99s2.84-30.04,8.52-43.23c5.68-13.19,13.6-24.71,23.75-34.55s22.12-17.51,35.92-22.99C81.99,2.74,97.11,0,113.55,0s31.25,2.69,45.06,8.07c13.8,5.38,25.77,12.99,35.92,22.83,10.15,9.85,18.01,21.41,23.59,34.71s8.37,27.76,8.37,43.38-2.79,30.34-8.37,43.54c-5.58,13.19-13.45,24.71-23.59,34.55-10.15,9.85-22.12,17.46-35.92,22.83-13.8,5.38-28.82,8.07-45.06,8.07h.01ZM113.26,193.17c12.31,0,23.63-2.08,33.95-6.26,10.33-4.17,19.29-10.06,26.91-17.68s13.56-16.53,17.84-26.76c4.27-10.22,6.41-21.38,6.41-33.48s-2.14-23.21-6.41-33.33c-4.28-10.12-10.22-19.04-17.84-26.76s-16.58-13.66-26.91-17.84c-10.33-4.17-21.65-6.26-33.95-6.26s-23.31,2.09-33.64,6.26c-10.33,4.17-19.35,10.12-27.07,17.84s-13.72,16.64-17.99,26.76c-4.28,10.12-6.41,21.23-6.41,33.33s2.14,23.26,6.41,33.48c4.27,10.23,10.27,19.14,17.99,26.76,7.72,7.62,16.74,13.51,27.07,17.68,10.33,4.18,21.54,6.26,33.64,6.26Z"/>
    <g>
      <path class="cls-2" d="M1259,30.9c-10.15-9.84-22.12-17.45-35.92-22.83-13.81-5.38-28.82-8.07-45.06-8.07s-31.56,2.74-45.36,8.22c-13.8,5.48-25.78,13.14-35.92,22.99-10.15,9.85-18.07,21.36-23.75,34.55s-8.52,27.6-8.52,43.23,2.84,30.04,8.52,43.23c5.68,13.2,13.6,24.71,23.75,34.55,10.15,9.85,22.17,17.51,36.08,22.99,13.9,5.48,28.97,8.22,45.21,8.22s31.25-2.69,45.06-8.07c13.8-5.38,25.77-12.99,35.92-22.83s18.01-21.36,23.59-34.55,8.37-27.7,8.37-43.54-2.79-30.09-8.37-43.38c-5.58-13.29-13.45-24.86-23.59-34.71h0ZM1256.42,142.47c-4.28,10.23-10.22,19.14-17.84,26.76-7.62,7.62-16.59,13.51-26.91,17.68-10.33,4.18-21.65,6.26-33.95,6.26s-23.31-2.08-33.64-6.26c-10.33-4.17-19.35-10.06-27.07-17.68-7.72-7.61-13.72-16.53-17.99-26.76-4.28-10.22-6.41-21.38-6.41-33.48s2.14-23.21,6.41-33.33c4.27-10.12,10.27-19.04,17.99-26.76s16.74-13.66,27.07-17.84c10.33-4.17,21.54-6.26,33.64-6.26s23.63,2.09,33.95,6.26c10.33,4.17,19.29,10.12,26.91,17.84,7.61,7.72,13.56,16.64,17.84,26.76,4.27,10.12,6.41,21.23,6.41,33.33s-2.14,23.26-6.41,33.48Z"/>
      <path class="cls-2" d="M1461.46,130.01c-3.67-6.97-8.74-12.7-15.05-17.04-6.43-4.41-13.79-8.02-21.87-10.71-8.2-2.73-16.8-5.01-25.56-6.76-11.89-2.57-22.31-5.34-30.97-8.23-8.89-2.96-15.8-6.88-20.56-11.64-4.94-4.94-7.45-11.73-7.45-20.2,0-2.84-.08-7.82,2.76-13.08,1.17-2.17,3.52-5.68,9.35-9.45,11.68-7.57,24.54-7.94,33.32-8.08,3.82-.06,15.43-.02,27.07,4.16,6.39,2.3,10.26,4.93,13.18,7.93,1.94,1.98,3.14,3.81,3.96,5.04,2.87,4.3,4.91,9.34,6.07,14.99h27.27c-1.87-16.25-8.95-29.62-21.06-39.77C1428.33,5.78,1409.22,0,1385.13,0c-14.67,0-27.71,2.48-38.75,7.38-10.96,4.86-19.55,11.66-25.53,20.19-5.95,8.5-8.96,18.57-8.96,29.93,0,8.56,1.48,16.15,4.41,22.56,2.91,6.38,7.39,11.95,13.32,16.56,6.03,4.69,13.73,8.83,22.89,12.3,9.27,3.51,20.3,6.68,32.78,9.41,9.32,1.99,17.97,4.25,25.71,6.73,8,2.57,14.57,6.33,19.53,11.19,8.49,8.3,7.78,19.72,7.76,21.55-.03,2.59-.44,10.24-5.51,17.71-2.6,3.83-5.39,6.1-6.69,7.14-13.75,11-35.96,10.62-39.57,10.52-12.19-.33-27.91-.76-40.54-12.57-7.7-7.2-11.09-15.68-12.64-20.81h-27.26c1.49,9.35,4.63,17.88,9.34,25.36,6.48,10.29,15.81,18.41,27.75,24.14,12.01,5.77,26.63,8.69,43.44,8.69s32.02-2.63,43.95-7.83c11.83-5.15,20.96-12.43,27.12-21.64,6.16-9.19,9.28-20.13,9.28-32.49,0-10.28-1.86-19.03-5.54-26.01h.04Z"/>
    </g>
  </g>
</svg>