<svg xmlns="http://www.w3.org/2000/svg" width="2474" height="850" fill="none">
    <path fill="#5CF2B5"
          d="M706.292 509.351a59.46 59.46 0 0 1-59.457-59.225l-.414-120.72a57.501 57.501 0 0 0-28.726-50.76L449.761 181.7a56.733 56.733 0 0 0-57.254-.116l-82.385 47.612a59.468 59.468 0 0 1-81.242-21.719 59.462 59.462 0 0 1-5.966-45.119 59.46 59.46 0 0 1 27.685-36.123l82.468-47.546a175.602 175.602 0 0 1 176.167 0l167.917 96.964a175.996 175.996 0 0 1 88.134 153.985l.464 120.024a59.509 59.509 0 0 1-59.225 59.639l-.232.05z"/>
    <path fill="#2DC8ED"
          d="M278.713 731.047a58.965 58.965 0 0 1-29.72-8.018l-83.86-48.308A176.165 176.165 0 0 1 77 522.062V328.234a176.369 176.369 0 0 1 88.249-152.709l85.367-49.153a59.437 59.437 0 0 1 22.046-7.776 59.436 59.436 0 0 1 44.36 11.558 59.425 59.425 0 0 1-6.949 99.112l-85.483 49.285a57.408 57.408 0 0 0-28.676 49.7v193.827a57.202 57.202 0 0 0 28.527 49.583l83.959 48.54a59.443 59.443 0 0 1 27.574 66.783 59.442 59.442 0 0 1-57.261 44.063z"/>
    <path fill="#A17AF4"
          d="M421.087 795.187a176.573 176.573 0 0 1-88.134-23.574l-83.959-48.54a59.424 59.424 0 1 1 59.457-102.894l84.075 48.54a57.432 57.432 0 0 0 57.022.115l86.046-48.887a176.162 176.162 0 0 1 176.167 1.044l69.331 40.753a59.464 59.464 0 0 1 29.354 59.706 59.464 59.464 0 0 1-23.286 39.499 59.45 59.45 0 0 1-44.467 11.185 59.454 59.454 0 0 1-21.986-7.96l-69.098-40.637a57.653 57.653 0 0 0-57.138-.232l-86.146 48.888a176.155 176.155 0 0 1-87.205 22.994"/>
    <path fill="#FFF" fill-rule="evenodd"
          d="M2181 108.825c-7.48 1.461-16.26 6.425-21.89 12.377-6.94 7.344-10.87 15.931-12.16 26.607-.67 5.533-.91 78.837-.71 213.918.28 185.427.47 206.003 1.92 210.65 6.75 21.633 24.48 33.852 46.43 32 10.89-.918 17.85-4.011 25.02-11.126 6.78-6.726 9.86-11.953 11.48-19.491.59-2.768 1.25-5.033 1.46-5.033.21 0 4.34 4.104 9.17 9.121 18 18.694 35.93 27.676 61.72 30.922 11.52 1.451 33.22.725 44.25-1.482 45.76-9.153 84.04-40.36 106.17-86.561 27.16-56.682 26.43-127.437-1.88-183.656-29.28-58.15-81.8-89.516-142.81-85.276-26.16 1.817-45.12 9.052-64.3 24.538-4.36 3.516-8.14 6.394-8.4 6.394-.26 0-.48-29.812-.49-66.25-.02-71.991-.16-74.107-5.59-85.212-8.37-17.099-28.93-26.437-49.39-22.44zm-793.24 32.888c-19.8 3.53-32.19 15.399-36.3 34.763-1.21 5.718-1.43 35.762-1.44 196.365-.01 113.241.36 191.595.91 194.533 4.25 22.395 19.28 35.629 42.07 37.04 18.64 1.154 34.37-6.225 42.37-19.872 6.48-11.062 6.08-5.401 6.63-93.815l.5-80.5 102.25-.255 102.25-.254v76.368c0 43.079.41 78.513.93 81.288 4.27 22.492 19.18 35.623 42.07 37.04 10 .619 19.69-1.306 27.23-5.41 7.13-3.878 14.92-12.751 18.37-20.925l2.9-6.852.26-195.952c.29-216.602.76-200.079-6.03-212.869-9.51-17.942-33.05-25.675-56.4-18.535-13.57 4.149-23.43 15.12-27.34 30.404-1.89 7.397-1.99 11.19-1.99 78.612v70.84h-205l-.01-72.25c-.01-57-.29-73.306-1.35-77.255-4.14-15.558-13.2-25.657-27.22-30.336-7.01-2.338-19.02-3.356-25.66-2.173zm-277.27 110.026c-34.23 2.879-63.19 16.601-88.53 41.946-33.7 33.703-51.96 81.688-51.96 136.542 0 49.814 15.01 93.277 44.22 128.052 20.84 24.802 48.43 41.599 79.86 48.606 13.78 3.072 42.65 3.327 55.72.492 18.34-3.981 34.35-11.369 47.95-22.125 4.53-3.589 8.69-6.525 9.25-6.525.66 0 1 21.334 1 62.395 0 59.415.1 62.701 1.99 68.822 6.73 21.791 26.7 34.8 48.65 31.692 17.58-2.49 32.04-16.058 36.87-34.602 1.3-4.985 1.49-31.908 1.49-207.807 0-178.23-.18-202.774-1.53-207.958-3.57-13.708-12.75-24.939-25.21-30.841-6.44-3.048-7.33-3.201-18.76-3.201-11.35 0-12.35.168-18.5 3.095-3.58 1.702-8.4 5-10.71 7.329-4.75 4.773-10.02 14.562-10.94 20.298-.34 2.102-.95 4.03-1.36 4.284-.41.254-1.99-1.421-3.51-3.721-17.08-25.81-54.75-40.242-95.99-36.773zm716.01 6.337c-15.02 4.962-27.01 17.863-30.44 32.766-.65 2.796-1.02 40.626-1.03 104.385-.02 108.556-.01 108.905 5.57 126.672 5.97 19.023 14.71 33.393 28.8 47.328 22.85 22.602 53.9 35.666 94.1 39.598 15.78 1.543 42.61.615 57.5-1.99 55.95-9.79 95.55-41.89 108.43-87.902 5.13-18.341 5.07-16.86 5.07-124.206v-100.5l-2.33-6.446c-4.66-12.909-12.24-21.501-24.15-27.364-6.15-3.027-7.07-3.19-18-3.19-10.86 0-11.9.181-18.2 3.165-11.31 5.359-19.33 14.338-24.11 26.987-2.21 5.845-2.21 5.903-2.72 100.348-.51 94.425-.51 94.505-2.73 101.072-4.28 12.627-13.39 23.966-24.77 30.854-18.22 11.016-47.75 11.016-65.98 0-11.47-6.934-19.42-16.959-24.24-30.598l-2.77-7.828-.52-94.5c-.58-105.587-.09-98.676-7.83-110.644-4.62-7.143-10.64-12.306-18.72-16.047-5.08-2.353-7.43-2.783-16.43-3.013-6.72-.172-11.94.208-14.5 1.053zm-704 78.686c-27.69 4.244-48.68 24.938-57.89 57.077-3.39 11.827-4.61 21.714-4.61 37.21.02 46.182 19.25 79.732 52 90.69 8.95 2.995 26.7 3.768 37 1.612 9.84-2.061 22.38-8.464 29.91-15.28 7.38-6.68 15.91-19.255 20.02-29.497 13.53-33.792 10.99-79.542-6.03-108.547-1.87-3.19-7.22-9.637-11.9-14.326-9.26-9.288-18.03-14.447-29.57-17.388-7.83-1.997-21.31-2.719-28.93-1.551zm1174 .398c-14.78 2.918-23.9 7.825-34.5 18.568-18.33 18.582-26.79 44.972-25.65 79.999.6 18.365 2.52 28.83 7.66 41.694 8.82 22.097 23.33 36.921 43.16 44.105 6.72 2.438 8.57 2.656 22.33 2.639 14.35-.018 15.35-.153 23.19-3.138 32.16-12.243 50.3-44.985 50.3-90.8 0-47.97-21.55-83.32-55.99-91.849-9.44-2.339-22.23-2.85-30.5-1.218z"
          clip-rule="evenodd"/>
</svg>