<?xml version="1.0" encoding="UTF-8"?>
<svg id="Layer_2" data-name="Layer 2" xmlns="http://www.w3.org/2000/svg" viewBox="0 0 734 740.19">
  <defs>
    <style>
      .cls-1 {
        fill: #5cf2b5;
      }

      .cls-1, .cls-2, .cls-3 {
        stroke-width: 0px;
      }

      .cls-2 {
        fill: #2dc8ed;
      }

      .cls-3 {
        fill: #a17af4;
      }
    </style>
  </defs>
  <g id="Layer_1-2" data-name="Layer 1">
    <path class="cls-1" d="M629.29,454.35c-32.75,0-59.33-26.48-59.46-59.23l-.41-120.72c.35-20.88-10.64-40.31-28.73-50.76l-167.93-96.95c-17.66-10.37-39.55-10.42-57.25-.12l-82.39,47.61c-28.43,16.43-64.8,6.71-81.24-21.72-7.89-13.65-10.04-29.88-5.97-45.12,4.07-15.24,14.03-28.23,27.68-36.12l82.47-47.55c54.47-31.59,121.69-31.59,176.17,0l167.92,96.96c54.99,31.68,88.67,90.52,88.13,153.99l.46,120.02c.07,32.81-26.42,59.48-59.22,59.64l-.23.05h0Z"/>
    <path class="cls-2" d="M201.71,676.05c-10.44,0-20.7-2.76-29.72-8.02l-83.86-48.31C33.58,588.25-.02,530.04,0,467.06v-193.83c.02-63.01,33.67-121.23,88.25-152.71l85.37-49.15c6.76-4.03,14.26-6.67,22.05-7.78,15.74-2.23,31.71,1.93,44.36,11.56,26.11,19.89,31.15,57.17,11.27,83.28-4.93,6.47-11.13,11.86-18.22,15.83l-85.48,49.28c-17.75,10.26-28.68,29.2-28.68,49.7v193.83c-.03,20.44,10.84,39.34,28.53,49.58l83.96,48.54c23.22,13.48,34.52,40.85,27.57,66.78-6.95,25.93-30.41,43.99-57.26,44.06h0Z"/>
    <path class="cls-3" d="M344.09,740.19c-30.94,0-61.33-8.13-88.13-23.57l-83.96-48.54c-28.63-16.04-38.84-52.25-22.81-80.88s52.25-38.84,80.88-22.81c.46.26.92.53,1.38.8l84.08,48.54c17.64,10.14,39.34,10.18,57.02.11l86.05-48.89c54.69-31.15,121.85-30.75,176.17,1.04l69.33,40.75c21.04,12.05,32.66,35.68,29.35,59.71-2.17,15.75-10.56,29.98-23.29,39.5-12.73,9.52-28.75,13.55-44.47,11.18-7.78-1.17-15.26-3.88-21.99-7.96l-69.1-40.64c-17.67-10.17-39.39-10.26-57.14-.23l-86.15,48.89c-26.58,15.1-56.63,23.03-87.21,22.99"/>
  </g>
</svg>