<svg xmlns="http://www.w3.org/2000/svg" viewBox="0 0 700.91 700"><defs><style>.cls-1{fill:#5893fa;}.cls-2{fill:#54e8b2;}</style></defs><g id="Layer_2" data-name="Layer 2"><g id="Layer_1-2" data-name="Layer 1"><path class="cls-1" d="M601.35,462.71c59.8-16.43,99.25-73.43,95.45-135.33A347.55,347.55,0,0,0,595.27,102.19c-135-135-353.18-136.24-489.69-3.65-137.52,133.55-141.22,354.79-8,492.65a347.67,347.67,0,0,0,230.4,106c61.58,3.62,118.11-36,134.45-95.5a199.25,199.25,0,0,1,139-139Zm-394.7,25.66c-75.75-77.05-75.75-201.92,0-279,78-79.36,205.83-79.36,283.85,0,75.75,77,75.75,201.91,0,279C412.48,567.72,284.66,567.72,206.65,488.37Z"/><circle class="cls-2" cx="601.42" cy="600.5" r="99.5"/></g></g></svg>