<svg xmlns="http://www.w3.org/2000/svg" viewBox="0 0 715.97 200"><defs><style>.cls-1{fill:#5893fa;}.cls-2{fill:#54e8b2;}.cls-3{fill:#fff;}</style></defs><g id="Layer_2" data-name="Layer 2"><g id="Layer_2-2" data-name="Layer 2"><path class="cls-1" d="M171.81,132.2a37.6,37.6,0,0,0,27.28-38.66A99.69,99.69,0,0,0,30.16,28.15C-9.13,66.31-10.18,129.52,27.87,168.91A99.29,99.29,0,0,0,93.7,199.19a37.51,37.51,0,0,0,38.41-27.29,57,57,0,0,1,39.7-39.7ZM59,139.53a56.85,56.85,0,1,1,81.1,0A57,57,0,0,1,59,139.53Z"/><circle class="cls-2" cx="171.83" cy="171.57" r="28.43"/><path class="cls-3" d="M553.49,62.71h1.56a8.38,8.38,0,0,1,8.38,8.38v54.23a8.36,8.36,0,0,1-8.38,8.37h-1.56a8.38,8.38,0,0,1-8.38-8.37c-5.53,7-13.19,10.36-23.13,10.36a32.25,32.25,0,0,1-24.42-10.79,38,38,0,0,1-10.07-26.68,37.74,37.74,0,0,1,10.07-26.55A32.34,32.34,0,0,1,522,60.73c9.94,0,17.6,3.4,23.13,10.36a8.4,8.4,0,0,1,8.38-8.38m-28.1,55.51a19,19,0,0,0,14.06-5.53,19.83,19.83,0,0,0,4.34-6.65,19.61,19.61,0,0,0,1.33-7.83,18.89,18.89,0,0,0-1.32-7.77,19.1,19.1,0,0,0-4.35-6.57,20.23,20.23,0,0,0-28.11,0,19.52,19.52,0,0,0-5.54,14.34,20,20,0,0,0,5.54,14.48,19,19,0,0,0,14.05,5.53Z"/><path class="cls-3" d="M328.72,126.47a47.06,47.06,0,0,0,9.19,5.88,52.84,52.84,0,0,0,36.44,2.9,35.06,35.06,0,0,0,11.48-5.69,27,27,0,0,0,7.63-9.21,27.46,27.46,0,0,0,2.79-12.56,21.84,21.84,0,0,0-6.67-16.88,64.23,64.23,0,0,0-19.33-11.26l-9.07-3.78a38.23,38.23,0,0,1-7.55-3.82,5.8,5.8,0,0,1-1.89-2.11,5.71,5.71,0,0,1-.65-2.77,5.78,5.78,0,0,1,.71-3.1A5.89,5.89,0,0,1,354,61.8a14.81,14.81,0,0,1,7.48-1.66,28.8,28.8,0,0,1,11.22,2.3,32.14,32.14,0,0,1,3.38,1.67,9.45,9.45,0,0,0,12-2.24l.75-.91a9.41,9.41,0,0,0,2-7.47,9.64,9.64,0,0,0-1.46-3.8,9.76,9.76,0,0,0-2.89-2.87A45,45,0,0,0,361.71,40a47.9,47.9,0,0,0-13.57,1.87,33.23,33.23,0,0,0-10.82,5.41,24.65,24.65,0,0,0-7.06,8.64,26.59,26.59,0,0,0-2.51,11.81,24.34,24.34,0,0,0,1.77,9.57,25,25,0,0,0,4.92,7.52,32.53,32.53,0,0,0,7.83,6A97.16,97.16,0,0,0,353,95.87L363,100a52.66,52.66,0,0,1,7.05,3.62,5.94,5.94,0,0,1,2.84,5.46,7.42,7.42,0,0,1-1.29,3.8,7.5,7.5,0,0,1-3.09,2.57,18.57,18.57,0,0,1-7.94,1.61,30,30,0,0,1-14.18-3.45,47.45,47.45,0,0,1-5.1-3.14,10.08,10.08,0,0,0-5.82-1.89,9.39,9.39,0,0,0-7.26,3.41l-.81,1a9.77,9.77,0,0,0-1.77,3.3,9.53,9.53,0,0,0,3.08,10.2Z"/><path class="cls-3" d="M633.62,72a33.07,33.07,0,0,0-24.17-9.29,38.37,38.37,0,0,0-26.69,10.51A35.39,35.39,0,0,0,571.9,99.08a36,36,0,0,0,10.86,26.11A37.39,37.39,0,0,0,594.69,133a38.67,38.67,0,0,0,14.75,2.83,34,34,0,0,0,18.13-4.73,34.52,34.52,0,0,0,6-4.64,8.47,8.47,0,0,0-11.7-12.24,26.61,26.61,0,0,1-2.12,1.69,17.12,17.12,0,0,1-10.15,2.91,18.59,18.59,0,0,1-7.61-1.53,18.2,18.2,0,0,1-5.87-4.14,18.47,18.47,0,0,1-3.84-6.22,21.9,21.9,0,0,1-1.37-7.81,21.25,21.25,0,0,1,1.37-7.73,18.9,18.9,0,0,1,3.84-6.16A18.32,18.32,0,0,1,602,81.05a18.59,18.59,0,0,1,7.61-1.53,17.12,17.12,0,0,1,10.15,2.91A27.17,27.17,0,0,1,622,84.21a8.58,8.58,0,0,0,5.4,2.28,8.68,8.68,0,0,0,5.61-1.7,8.51,8.51,0,0,0,2.67-9.85,8.4,8.4,0,0,0-2-3"/><path class="cls-3" d="M306.28,64.37h1.56a8.4,8.4,0,0,1,8.38,8.38v78.88a8.38,8.38,0,0,1-8.38,8.37h-1.56a8.36,8.36,0,0,1-8.37-8.37V127c-5.39,7-13.06,10.36-23,10.36a32.5,32.5,0,0,1-24.56-10.79,38,38,0,0,1-10.08-26.68,37.7,37.7,0,0,1,10.08-26.55,32.68,32.68,0,0,1,24.56-10.93c9.94,0,17.61,3.4,23,10.36a8.36,8.36,0,0,1,8.37-8.37m-28,55.5a19,19,0,0,0,7.6-1.31,19.24,19.24,0,0,0,6.45-4.22,20.11,20.11,0,0,0,5.54-14.48,19.52,19.52,0,0,0-5.54-14.34,18.66,18.66,0,0,0-14.05-5.68,19.15,19.15,0,0,0-14.2,5.68,19.46,19.46,0,0,0-5.53,14.34,19.8,19.8,0,0,0,1.31,7.8,20.09,20.09,0,0,0,4.22,6.68,19.61,19.61,0,0,0,14.2,5.53Z"/><path class="cls-3" d="M423.59,72.56c5.39-7,13.05-10.36,23-10.36a32.64,32.64,0,0,1,24.56,10.93,37.68,37.68,0,0,1,10.08,26.54,38,38,0,0,1-10.08,26.69,32.55,32.55,0,0,1-24.56,10.79c-9.94,0-17.6-3.41-23-10.36v24.64a8.38,8.38,0,0,1-8.38,8.38h-1.56a8.36,8.36,0,0,1-8.37-8.38V72.56a8.38,8.38,0,0,1,8.37-8.38h1.56a8.4,8.4,0,0,1,8.38,8.38Zm33.78,41.58a20,20,0,0,0,5.54-14.47,19.52,19.52,0,0,0-5.54-14.34,19.15,19.15,0,0,0-14.2-5.68,18.56,18.56,0,0,0-14.05,5.68,19.46,19.46,0,0,0-5.53,14.34,20,20,0,0,0,5.53,14.47,19,19,0,0,0,14.05,5.54,19.57,19.57,0,0,0,14.2-5.54Z"/><path class="cls-3" d="M661.73,107.26c2.41,8.95,9.08,13.35,20,13.35A20.41,20.41,0,0,0,694.11,117a8.13,8.13,0,0,1,8.86-.41,8.49,8.49,0,0,1,.74,14.29,37.87,37.87,0,0,1-22.25,6.34c-11.78,0-21.15-3.55-28.25-10.64a36.41,36.41,0,0,1-10.65-26.83,36.72,36.72,0,0,1,10.51-26.69,35.83,35.83,0,0,1,27-10.79,33.53,33.53,0,0,1,25.7,10.79A37.4,37.4,0,0,1,716,99.74v.08a7.55,7.55,0,0,1-7.58,7.44Zm35.91-14.2A17.18,17.18,0,0,0,680,78.72c-9.8,0-16.47,5.26-18.61,14.34Z"/></g></g></svg>