<?xml version="1.0" encoding="UTF-8"?>
<svg id="Layer_2" data-name="Layer 2" xmlns="http://www.w3.org/2000/svg" viewBox="0 0 272.13 448.5">
  <defs>
    <style>
      .cls-1, .cls-2 {
        fill: #fff;
        opacity: .5;
        stroke-width: 0px;
      }

      .cls-2 {
        fill-rule: evenodd;
      }
    </style>
  </defs>
  <g id="Layer_1-2" data-name="Layer 1">
    <g>
      <path class="cls-2" d="M43.28,364c23.33,0,42.25,18.91,42.25,42.25s-18.91,42.25-42.25,42.25S1.03,429.58,1.03,406.25s18.91-42.25,42.25-42.25"/>
      <path class="cls-1" d="M251.06,114.03c20.18,11.69,27.07,37.54,15.38,57.72-11.69,20.18-37.54,27.07-57.72,15.38L21.07,78.79C.89,67.11-6,41.26,5.69,21.07,17.38.89,43.23-6,63.41,5.69l187.65,108.34Z"/>
      <path class="cls-1" d="M251.06,187.14c20.18-11.69,27.07-37.54,15.38-57.72-11.69-20.18-37.54-27.07-57.72-15.38L21.07,222.37c-20.18,11.69-27.07,37.54-15.38,57.72,11.69,20.18,37.54,27.07,57.72,15.38l187.65-108.34Z"/>
    </g>
  </g>
</svg>